<svg viewBox="0 0 330 200" xmlns="http://www.w3.org/2000/svg"><g><g><g><g><g><line x1="41.0620002746582" y1="177.95999908447266" x2="36.0620002746582" y2="177.95999908447266" style="visibility: inherit;" fill="rgb(0, 0, 0)" stroke="rgb(204, 204, 204)" stroke-width="1px"></line><line x1="41.0620002746582" y1="163.1299991607666" x2="36.0620002746582" y2="163.1299991607666" style="visibility: inherit;" fill="rgb(0, 0, 0)" stroke="rgb(204, 204, 204)" stroke-width="1px"></line><line x1="41.0620002746582" y1="148.29999923706055" x2="36.0620002746582" y2="148.29999923706055" style="visibility: inherit;" fill="rgb(0, 0, 0)" stroke="rgb(204, 204, 204)" stroke-width="1px"></line><line x1="41.0620002746582" y1="133.4699993133545" x2="36.0620002746582" y2="133.4699993133545" style="visibility: inherit;" fill="rgb(0, 0, 0)" stroke="rgb(204, 204, 204)" stroke-width="1px"></line><line x1="41.0620002746582" y1="118.63999938964844" x2="36.0620002746582" y2="118.63999938964844" style="visibility: inherit;" fill="rgb(0, 0, 0)" stroke="rgb(204, 204, 204)" stroke-width="1px"></line><line x1="41.0620002746582" y1="103.80999946594238" x2="36.0620002746582" y2="103.80999946594238" style="visibility: inherit;" fill="rgb(0, 0, 0)" stroke="rgb(204, 204, 204)" stroke-width="1px"></line><line x1="41.0620002746582" y1="88.97999954223633" x2="36.0620002746582" y2="88.97999954223633" style="visibility: inherit;" fill="rgb(0, 0, 0)" stroke="rgb(204, 204, 204)" stroke-width="1px"></line><line x1="41.0620002746582" y1="74.14999961853027" x2="36.0620002746582" y2="74.14999961853027" style="visibility: inherit;" fill="rgb(0, 0, 0)" stroke="rgb(204, 204, 204)" stroke-width="1px"></line><line x1="41.0620002746582" y1="59.31999969482422" x2="36.0620002746582" y2="59.31999969482422" style="visibility: inherit;" fill="rgb(0, 0, 0)" stroke="rgb(204, 204, 204)" stroke-width="1px"></line><line x1="41.0620002746582" y1="44.489999771118164" x2="36.0620002746582" y2="44.489999771118164" style="visibility: inherit;" fill="rgb(0, 0, 0)" stroke="rgb(204, 204, 204)" stroke-width="1px"></line><line x1="41.0620002746582" y1="29.65999984741211" x2="36.0620002746582" y2="29.65999984741211" style="visibility: inherit;" fill="rgb(0, 0, 0)" stroke="rgb(204, 204, 204)" stroke-width="1px"></line><line x1="41.0620002746582" y1="14.829999923706055" x2="36.0620002746582" y2="14.829999923706055" style="visibility: inherit;" fill="rgb(0, 0, 0)" stroke="rgb(204, 204, 204)" stroke-width="1px"></line><line x1="41.0620002746582" y1="0" x2="36.0620002746582" y2="0" style="visibility: inherit;" fill="rgb(0, 0, 0)" stroke="rgb(204, 204, 204)" stroke-width="1px"></line></g><g transform="translate(31.062000274658203, 0)"><text style="text-anchor: end; visibility: hidden; font-family: &quot;Helvetica Neue&quot;, sans-serif; font-size: 12px; font-weight: 200;" x="0" y="177.95999908447266" dx="0em" dy="0.3em" fill="rgb(50, 49, 63)" stroke="none" stroke-width="1px">-40</text><text style="text-anchor: end; visibility: inherit; font-family: &quot;Helvetica Neue&quot;, sans-serif; font-size: 12px; font-weight: 200;" x="0" y="163.1299991607666" dx="0em" dy="0.3em" fill="rgb(50, 49, 63)" stroke="none" stroke-width="1px">-20</text><text style="text-anchor: end; visibility: hidden; font-family: &quot;Helvetica Neue&quot;, sans-serif; font-size: 12px; font-weight: 200;" x="0" y="148.29999923706055" dx="0em" dy="0.3em" fill="rgb(50, 49, 63)" stroke="none" stroke-width="1px">0</text><text style="text-anchor: end; visibility: inherit; font-family: &quot;Helvetica Neue&quot;, sans-serif; font-size: 12px; font-weight: 200;" x="0" y="133.4699993133545" dx="0em" dy="0.3em" fill="rgb(50, 49, 63)" stroke="none" stroke-width="1px">20</text><text style="text-anchor: end; visibility: hidden; font-family: &quot;Helvetica Neue&quot;, sans-serif; font-size: 12px; font-weight: 200;" x="0" y="118.63999938964844" dx="0em" dy="0.3em" fill="rgb(50, 49, 63)" stroke="none" stroke-width="1px">40</text><text style="text-anchor: end; visibility: inherit; font-family: &quot;Helvetica Neue&quot;, sans-serif; font-size: 12px; font-weight: 200;" x="0" y="103.80999946594238" dx="0em" dy="0.3em" fill="rgb(50, 49, 63)" stroke="none" stroke-width="1px">60</text><text style="text-anchor: end; visibility: hidden; font-family: &quot;Helvetica Neue&quot;, sans-serif; font-size: 12px; font-weight: 200;" x="0" y="88.97999954223633" dx="0em" dy="0.3em" fill="rgb(50, 49, 63)" stroke="none" stroke-width="1px">80</text><text style="text-anchor: end; visibility: inherit; font-family: &quot;Helvetica Neue&quot;, sans-serif; font-size: 12px; font-weight: 200;" x="0" y="74.14999961853027" dx="0em" dy="0.3em" fill="rgb(50, 49, 63)" stroke="none" stroke-width="1px">100</text><text style="text-anchor: end; visibility: hidden; font-family: &quot;Helvetica Neue&quot;, sans-serif; font-size: 12px; font-weight: 200;" x="0" y="59.31999969482422" dx="0em" dy="0.3em" fill="rgb(50, 49, 63)" stroke="none" stroke-width="1px">120</text><text style="text-anchor: end; visibility: inherit; font-family: &quot;Helvetica Neue&quot;, sans-serif; font-size: 12px; font-weight: 200;" x="0" y="44.489999771118164" dx="0em" dy="0.3em" fill="rgb(50, 49, 63)" stroke="none" stroke-width="1px">140</text><text style="text-anchor: end; visibility: hidden; font-family: &quot;Helvetica Neue&quot;, sans-serif; font-size: 12px; font-weight: 200;" x="0" y="29.65999984741211" dx="0em" dy="0.3em" fill="rgb(50, 49, 63)" stroke="none" stroke-width="1px">160</text><text style="text-anchor: end; visibility: inherit; font-family: &quot;Helvetica Neue&quot;, sans-serif; font-size: 12px; font-weight: 200;" x="0" y="14.829999923706055" dx="0em" dy="0.3em" fill="rgb(50, 49, 63)" stroke="none" stroke-width="1px">180</text><text style="text-anchor: end; visibility: hidden; font-family: &quot;Helvetica Neue&quot;, sans-serif; font-size: 12px; font-weight: 200;" x="0" y="0" dx="0em" dy="0.3em" fill="rgb(50, 49, 63)" stroke="none" stroke-width="1px">200</text></g><line x1="41.0620002746582" y1="0" x2="41.0620002746582" y2="177.95999908447266" fill="rgb(0, 0, 0)" stroke="rgb(204, 204, 204)" stroke-width="1px"></line></g></g><g transform="translate(41, 0)" clip-path="url(#clip_0)"><clipPath id="clip_0"><rect width="288" height="177"></rect></clipPath><g><g><g><line x1="0" y1="0" x2="0" y2="177.95999908447266" fill="rgb(0, 0, 0)" stroke="rgb(60, 60, 60)" stroke-width="1px" opacity="0.25"></line><line x1="32.10422219170464" y1="0" x2="32.10422219170464" y2="177.95999908447266" fill="rgb(0, 0, 0)" stroke="rgb(60, 60, 60)" stroke-width="1px" opacity="0.25"></line><line x1="64.20844438340929" y1="0" x2="64.20844438340929" y2="177.95999908447266" fill="rgb(0, 0, 0)" stroke="rgb(60, 60, 60)" stroke-width="1px" opacity="0.25"></line><line x1="96.31266657511392" y1="0" x2="96.31266657511392" y2="177.95999908447266" fill="rgb(0, 0, 0)" stroke="rgb(60, 60, 60)" stroke-width="1px" opacity="0.25"></line><line x1="128.41688876681857" y1="0" x2="128.41688876681857" y2="177.95999908447266" fill="rgb(0, 0, 0)" stroke="rgb(60, 60, 60)" stroke-width="1px" opacity="0.25"></line><line x1="160.52111095852322" y1="0" x2="160.52111095852322" y2="177.95999908447266" fill="rgb(0, 0, 0)" stroke="rgb(60, 60, 60)" stroke-width="1px" opacity="0.25"></line><line x1="192.62533315022785" y1="0" x2="192.62533315022785" y2="177.95999908447266" fill="rgb(0, 0, 0)" stroke="rgb(60, 60, 60)" stroke-width="1px" opacity="0.25"></line><line x1="224.72955534193252" y1="0" x2="224.72955534193252" y2="177.95999908447266" fill="rgb(0, 0, 0)" stroke="rgb(60, 60, 60)" stroke-width="1px" opacity="0.25"></line><line x1="256.83377753363715" y1="0" x2="256.83377753363715" y2="177.95999908447266" fill="rgb(0, 0, 0)" stroke="rgb(60, 60, 60)" stroke-width="1px" opacity="0.25"></line><line x1="288.9379997253418" y1="0" x2="288.9379997253418" y2="177.95999908447266" fill="rgb(0, 0, 0)" stroke="rgb(60, 60, 60)" stroke-width="1px" opacity="0.25"></line></g><g><line x1="0" y1="177.95999908447266" x2="288.9379997253418" y2="177.95999908447266" fill="rgb(0, 0, 0)" stroke="rgb(60, 60, 60)" stroke-width="1px" opacity="0.25"></line><line x1="0" y1="163.1299991607666" x2="288.9379997253418" y2="163.1299991607666" fill="rgb(0, 0, 0)" stroke="rgb(60, 60, 60)" stroke-width="1px" opacity="0.25"></line><line x1="0" y1="148.29999923706055" x2="288.9379997253418" y2="148.29999923706055" fill="rgb(0, 0, 0)" stroke="rgb(60, 60, 60)" stroke-width="1px" opacity="0.25"></line><line x1="0" y1="133.4699993133545" x2="288.9379997253418" y2="133.4699993133545" fill="rgb(0, 0, 0)" stroke="rgb(60, 60, 60)" stroke-width="1px" opacity="0.25"></line><line x1="0" y1="118.63999938964844" x2="288.9379997253418" y2="118.63999938964844" fill="rgb(0, 0, 0)" stroke="rgb(60, 60, 60)" stroke-width="1px" opacity="0.25"></line><line x1="0" y1="103.80999946594238" x2="288.9379997253418" y2="103.80999946594238" fill="rgb(0, 0, 0)" stroke="rgb(60, 60, 60)" stroke-width="1px" opacity="0.25"></line><line x1="0" y1="88.97999954223633" x2="288.9379997253418" y2="88.97999954223633" fill="rgb(0, 0, 0)" stroke="rgb(60, 60, 60)" stroke-width="1px" opacity="0.25"></line><line x1="0" y1="74.14999961853027" x2="288.9379997253418" y2="74.14999961853027" fill="rgb(0, 0, 0)" stroke="rgb(60, 60, 60)" stroke-width="1px" opacity="0.25"></line><line x1="0" y1="59.31999969482422" x2="288.9379997253418" y2="59.31999969482422" fill="rgb(0, 0, 0)" stroke="rgb(60, 60, 60)" stroke-width="1px" opacity="0.25"></line><line x1="0" y1="44.489999771118164" x2="288.9379997253418" y2="44.489999771118164" fill="rgb(0, 0, 0)" stroke="rgb(60, 60, 60)" stroke-width="1px" opacity="0.25"></line><line x1="0" y1="29.65999984741211" x2="288.9379997253418" y2="29.65999984741211" fill="rgb(0, 0, 0)" stroke="rgb(60, 60, 60)" stroke-width="1px" opacity="0.25"></line><line x1="0" y1="14.829999923706055" x2="288.9379997253418" y2="14.829999923706055" fill="rgb(0, 0, 0)" stroke="rgb(60, 60, 60)" stroke-width="1px" opacity="0.25"></line><line x1="0" y1="0" x2="288.9379997253418" y2="0" fill="rgb(0, 0, 0)" stroke="rgb(60, 60, 60)" stroke-width="1px" opacity="0.25"></line></g></g></g><g><g><line x1="0" y1="148.29999923706055" x2="288.9379997253418" y2="148.29999923706055" fill="rgb(0, 0, 0)" stroke="rgb(153, 153, 153)" stroke-width="1.5px"></line></g></g><g><g><line x1="32.10422219170464" y1="0" x2="32.10422219170464" y2="177.95999908447266" fill="rgb(0, 0, 0)" stroke="rgb(153, 153, 153)" stroke-width="1.5px"></line></g></g><g><g><g><g><g><path style="fill: none;" stroke="rgb(0, 119, 187)" stroke-width="2px" d="M32.10422219170464,146.07549924850463L32.42526441362169,146.53893674612044L32.74630663553874,147.0591216924239L33.067348857455784,147.62937791698118L33.38839107937283,147.59863595128638L33.70943330128988,145.7151031708743L34.030475523206924,146.7788394039634L34.35151774512397,147.3976977815292L34.67255996704102,148.66115105718637L34.993602188958064,148.51581151651143L35.314644410875104,149.02453222543454L35.63568663279216,148.13959271243638L35.9567288547092,147.01588769164547L36.27777107662625,146.9362699210629L36.5988132985433,147.77875777107283L36.91985552046034,148.2839968894503L37.240897742377385,148.88369933503327L37.56193996429443,148.3535654569964L37.882982186211485,148.6287557364839L38.204024408128525,148.49724832859536L38.52506663004557,148.7149534662424L38.84610885196262,147.36255398016073L39.16715107387967,148.0341373850919L39.48819329579671,146.36087420647561L39.80923551771376,147.72972810734888L40.130277739630806,147.95783694834554L40.45131996154785,147.2049010977866L40.77236218346489,147.6429406224937L41.093404405381946,145.23636319533418L41.41444662729899,147.0550180110301L41.73548884921603,148.14621064313107L42.05653107113308,147.91112606351916L42.37757329305013,148.0666753403635L42.69861551496718,148.45660490868838L43.01965773688422,148.39396263896037L43.34069995880127,148.65297727934615L43.66174218071831,148.51178606155813L43.98278440263537,148.13047133186907L44.30382662455241,148.49488249323167L44.624868846469454,147.82372919291782L44.9459110683865,148.60743720815174L45.26695329030355,148.78106201827293L45.587995512220594,149.18183690285193L45.90903773413764,148.53250183794876L46.23007995605469,148.4395007975838L46.551122177971735,147.49390017789318L46.872164399888774,148.1129398000574L47.19320662180583,148.4843635733411L47.514248843722875,148.70721783730602L47.83529106563992,147.0613304048239L48.15633328755696,147.85339793619653L48.477375509474015,148.03203845654267L48.79841773139106,148.13922276875L49.11945995330811,147.90693335759985L49.44050217522515,148.36075970785853L49.761544397142195,148.33645551953933L50.08258661905925,148.9150730034962L50.403628840976296,149.26224349387022L50.724671062893336,149.76714578656876L51.04571328481038,148.58708716981718L51.36675550672743,148.47225199671453L51.687797728644476,146.9203509004823L52.00883995056152,146.87901023816536L52.32988217247857,148.04060583467168L52.650924394395616,147.8477631971531L52.971966616312656,148.62185761006432L53.29300883822971,148.49311426086282L53.61405106014676,147.52606825591954L53.935093282063804,147.83564064837594L54.25613550398084,148.614584080798L54.57717772589789,147.00575015093244L54.898219947814944,147.8200497838578L55.21926216973199,148.308629563613L55.54030439164903,147.41537743756967L55.86134661356608,147.769226157366L56.18238883548313,148.57473538619206L56.50343105740018,148.16824092806536L56.82447327931722,147.9243442531893L57.145515501234264,148.0746062467378L57.46655772315131,148.461363441341L57.787599945068365,148.69341775810295L58.108642166985405,148.53605034968598L58.42968438890245,149.03482990158406L58.7507266108195,148.44429763730054L59.071768832736545,147.49677828178218L59.39281105465359,147.81806666389352L59.71385327657064,147.4176396962121L60.034895498487685,146.88078351712912L60.35593772040473,145.96546981273107L60.67697994232177,146.0094815870405L60.998022164238826,146.6290886485744L61.31906438615587,147.00085288549474L61.64010660807292,146.92731142917282L61.96114882998996,146.58658655690556L62.28219105190701,146.97535163049344L62.60323327382406,146.61541067769792L62.9242754957411,147.28924610144296L63.245317717658146,147.99014735416412L63.56635993957519,148.70728810427093L63.88740216149225,148.24777255891266L64.20844438340929,147.08226323627534L64.52948660532633,146.97615763964117L64.85052882724338,146.91249428166068L65.17157104916043,144.79809627755353L65.49261327107747,145.30905746593396L65.81365549299451,145.61563417896224L66.13469771491157,145.20638020983097L66.45573993682862,145.55402782530044L66.77678215874566,144.87281639915975L67.0978243806627,145.94708953584595L67.41886660257975,144.81205342701293L67.73990882449681,146.207231751032L68.06095104641385,146.74773874696928L68.38199326833089,143.80944296131634L68.70303549024794,144.1226654792434L69.02407771216498,142.53099899915495L69.34511993408204,140.38959911720536L69.66616215599907,139.10475918803562L69.98720437791613,140.1134552213785L70.30824659983317,132.11727288563472L70.62928882175021,132.3617634582485L70.95033104366726,136.95745777892859L71.27137326558432,142.0876743591296L71.59241548750136,145.16580430725023L71.9134577094184,147.30928227459674L72.23449993133545,147.70556905958225L72.5555421532525,147.94334113057357L72.87658437516954,147.78940437469424L73.1976265970866,147.69704232116663L73.51866881900362,148.53142508447246L73.83971104092068,148.43885474550768L74.16075326283773,148.38331254212883L74.48179548475477,148.94318721704977L74.80283770667182,149.27911202200232L75.12387992858886,149.48066690497384L75.44492215050592,148.71179983933442L75.76596437242297,147.6572796030025L76.08700659434,146.13476746578098L76.40804881625705,147.59406017124104L76.72909103817409,148.17303579604297L77.05013326009114,148.52042117092412L77.3711754820082,147.83905240043046L77.69221770392524,148.61663113203073L78.01325992584229,147.00697838167207L78.33430214775935,147.82078672230156L78.65534436967637,148.01247172820516L78.97638659159342,148.1274827317473L79.29742881351046,149.08628932929497L79.61847103542752,149.36497328934945L79.93951325734457,148.93898366843388L80.26055547926161,148.97998989435868L80.58159770117867,148.70799363143942L80.9026399230957,147.35839587979137L81.22368214501275,147.43843722422494L81.54472436692978,148.37626202630742L81.86576658884684,147.15935691671217L82.18680881076389,147.91221384332565L82.50785103268093,146.8809280069231L82.82889325459799,147.15195650050396L83.14993547651504,147.90777359360072L83.47097769843207,148.954463846407L83.79201992034912,148.3960780041943L84.11306214226616,148.3576464973408L84.43410436418321,148.92778759017693L84.75514658610027,148.08347225198216L85.0761888080173,148.4666830444876L85.39723102993436,147.51020952609443L85.7182732518514,148.71592540590325L86.03931547376844,148.54955493836616L86.3603576956855,149.04293265479217L86.68139991760253,148.4491592892254L87.00244213951959,148.68609526683358L87.32348436143663,149.1248568518726L87.64452658335368,146.71871381662893L87.96556880527073,147.05462798632746L88.28661102718777,147.5527764866207L88.60765324910481,147.85166558679663L88.92869547102185,148.92079904232457L89.24973769293891,148.9690791186931L89.57077991485596,148.9980471645142L89.891822136773,148.71882799353273L90.21286435869006,148.84789648941796L90.5339065806071,149.22193758542323L90.85494880252415,148.25996224912993L91.17599102444119,148.86917704125042L91.49703324635823,148.64150591957446L91.81807546827528,149.09810324351713L92.13911769019232,148.7788616409345L92.46015991210938,149.18051667633316L92.78120213402643,148.23510970367587L93.10224435594347,147.37126552160737L93.42328657786051,147.74275900778866L93.74432879977755,147.9656550994974L94.0653710216946,148.3959927529968L94.38641324361166,148.6541953450964L94.7074554655287,148.80911690035617L95.02849768744575,147.41906984114144L95.3495399093628,148.36464159645732L95.67058213127984,148.04218465422449L95.99162435319688,148.14531048735893L96.31266657511392,145.8343859994466L96.63370879703098,146.8206312944922L96.95475101894803,147.70897846999364L97.27579324086507,146.75898678292393L97.59683546278212,146.78219176763034L97.91787768469916,146.79611475845417L98.23891990661622,147.99086854684498L98.55996212853326,149.00432081835356L98.8810043504503,149.01919218431047L99.20204657236735,148.7315150054105L99.52308879428439,149.15210869501877L99.84413101620144,149.40446490878372L100.1651732381185,148.3694786431462L100.48621546003554,147.45188688528958L100.80725768195259,147.49453182752384L101.12829990386962,148.40991878828677L101.44934212578667,148.36595096779627L101.77038434770373,148.04297027702785L102.09142656962077,147.8491818625668L102.41246879153782,148.32610881083843L102.73351101345486,147.72246498437903L103.05455323537191,146.47047869308102L103.37559545728895,144.53288692440574L103.69663767920599,144.85333185557118L104.01767990112305,141.78299883105512L104.33872212304009,140.5339990132937L104.65976434495714,138.5981991287404L104.9808065668742,139.51291918732724L105.30184878879123,137.09575123773814L105.62289101070829,113.99365057937383L105.94393323262531,114.36919011111308L106.26497545454237,116.96731381794959L106.58601767645942,119.41598803747385L106.90705989837646,111.09739261954242L107.22810212029351,117.08043531232603L107.54914434221057,122.44986091884093L107.87018656412761,127.15451627512047L108.19122878604466,129.38410949193997L108.51227100796169,129.8320654266093L108.83331322987874,131.28723898130738L109.15435545179578,131.27054311870387L109.47539767371283,129.48092561029702L109.79643989562989,131.07655509152L110.11748211754693,127.584932803142L110.43852433946398,123.1171594423222L110.75956656138104,133.48689535869167L111.08060878329806,132.88693694360856L111.40165100521511,133.41676188998105L111.72269322713215,135.8108568471234L112.04373544904921,127.4595138717628L112.36477767096626,126.60110806518415L112.6858198928833,113.62886464532387L113.00686211480036,120.67551851711374L113.3279043367174,123.42051084781707L113.64894655863444,122.398106259972L113.96998878055149,130.38606346301444L114.29103100246853,132.50943779857283L114.61207322438558,134.3766623968561L114.93311544630262,132.23439717261073L115.25415766821968,133.3218380258565L115.57519989013673,109.35650266445187L115.89624211205376,113.66310135147874L116.21728433397081,112.39126058353129L116.53832655588785,105.10295615633214L116.8593687778049,107.55177346491745L117.18041099972196,94.48766392483671L117.501453221639,103.55539811381315L117.82249544355605,93.86943870501885L118.14353766547309,112.37906293462021L118.46457988739013,111.62083753341616L118.78562210930718,117.09790226217618L119.10666433122422,116.82494111774271L119.42770655314128,121.99996440361683L119.74874877505832,115.31717842549529L120.06979099697537,116.94290680963067L120.39083321889242,122.66394381569782L120.71187544080946,129.6557660010276L121.0329176627265,132.07125932138072L121.35395988464354,131.1477553257996L121.6750021065606,130.59365292845098L121.99604432847765,133.52379147325712L122.31708655039469,136.46827459403727L122.63812877231175,137.93836446803124L122.9591709942288,139.41361838937587L123.28021321614584,140.8919707391309L123.60125543806288,135.84698217950148L123.92229765997992,136.97238902236154L124.24333988189697,136.16463313570696L124.56438210381403,134.49357960981774L124.88542432573107,136.75354747749952L125.20646654764812,138.70272819505686L125.52750876956516,138.38923663322063L125.8485509914822,139.09094169154127L126.16959321339925,141.88476471432662L126.49063543531629,142.37465853410134L126.81167765723335,143.26179482291442L127.13271987915039,141.7178766068834L127.45376210106744,140.4949256787907L127.7748043229845,140.65095511735743L128.09584654490155,141.0411727789716L128.41688876681857,141.8685033728883L128.73793098873563,143.55130172313486L129.05897321065265,142.4847807439639L129.3800154325697,141.84486815646136L129.70105765448676,139.9779206115892L130.02209987640381,142.12035206788127L130.34314209832087,141.32961095233765L130.66418432023792,139.96536628758912L130.98522654215495,138.85021949026586L131.306268764072,139.3675314057684L131.62731098598903,140.27111855201818L131.94835320790608,141.40647083671627L132.26939542982313,140.60468221516453L132.5904376517402,141.6066090346041L132.91147987365724,141.02136513237133L133.23252209557427,140.9668187895058L133.55356431749132,139.15449099294176L133.87460653940838,141.03309429974456L134.1956487613254,141.8636562853521L134.51669098324246,144.14159346756136L134.8377332051595,144.61855578146455L135.15877542707656,142.82853318048763L135.47981764899362,143.5341196107462L135.80085987091064,142.1778714780566L136.1219020928277,142.84712259081346L136.44294431474472,139.98607327525224L136.76398653666178,140.34564367523433L137.08502875857883,141.15458591217185L137.40607098049588,142.5297512497567L137.72711320241294,142.76165045535942L138.04815542432996,141.4177899863504L138.36919764624702,140.01827370799677L138.69023986816407,140.95816393182932L139.0112820900811,141.81869806460296L139.33232431199815,143.81801853663774L139.6533665339152,142.64481083206567L139.97440875583226,144.31368619711537L140.2954509777493,141.1626114375075L140.61649319966634,141.94136656800987L140.9375354215834,141.51881965088893L141.25857764350042,142.45169149451286L141.57961986541747,143.0114146006872L141.90066208733452,143.0506484659177L142.22170430925158,142.48098878810777L142.54274653116863,141.54599298447354L142.8637887530857,141.28159550076714L143.1848309750027,140.82635701206917L143.50587319691977,142.33281390969512L143.8269154188368,143.53328804674481L144.14795764075384,143.36377253355226L144.4689998626709,142.96546322716262L144.79004208458792,143.02307764180293L145.111084306505,142.4644462936389L145.43212652842203,142.7224674816887L145.75316875033909,144.3602801868892L146.0742109722561,144.156567816113L146.3952531941732,143.44114039669904L146.71629541609022,143.3084839435248L147.03733763800724,142.63569007467203L147.35837985992433,142.23201375336032L147.67942208184135,141.98980796057333L148.0004643037584,142.43768448184937L148.32150652567546,143.59621039003736L148.6425487475925,143.4015259395278L148.96359096950954,142.39491527379968L149.28463319142662,143.86714886368168L149.60567541334365,143.56408902371436L149.92671763526067,117.87465325095957L150.24775985717773,126.78219166218463L150.56880207909478,132.7199147058679L150.88984430101183,136.28254853207787L151.21088652292886,139.60652882170035L151.53192874484594,141.00771699852558L151.85297096676297,141.25522990767246L152.17401318868,141.99693765010886L152.49505541059708,139.17936231235535L152.8160976325141,141.64121708834097L153.13713985443115,141.6353299615617L153.45818207634818,139.85219769464942L153.77922429826526,141.155118322295L154.1002665201823,143.41987069125298L154.42130874209934,140.62632213399007L154.7423509640164,141.3229929874253L155.06339318593342,142.33419549643466L155.38443540785048,141.7545170079438L155.70547762976753,141.99990991179754L156.02651985168458,141.85054565563564L156.3475620736016,142.05752710041264L156.6686042955187,141.29191597185647L156.98964651743572,139.6461493008263L157.31068873935274,141.9212892814235L157.6317309612698,141.50677327893712L157.95277318318685,140.3682636820229L158.2738154051039,141.168157916245L158.59485762702093,142.53789445220062L158.915899848938,143.35973637377398L159.23694207085504,143.852841526718L159.55798429277206,143.8521046200103L159.87902651468914,143.55506247751154L160.20006873660617,143.97003718896053L160.52111095852322,143.32922202040757L160.84215318044025,142.35153292232755L161.16319540235733,141.76491946347954L161.48423762427436,139.92995139580012L161.8052798461914,142.0915705384078L162.12632206810846,142.79534202702416L162.4473642900255,142.62440492324578L162.76840651194254,142.5218426609787L163.08944873385957,142.16370530514436L163.41049095577665,140.76242289774726L163.73153317769368,140.2182534517831L164.05257539961073,141.37475177657524L164.37361762152779,139.39925078518343L164.6946598434448,140.5867501781413L165.01570206536186,140.70604981696778L165.33674428727892,141.66742959568603L165.65778650919597,142.244257462917L165.978828731113,141.10735419088496L166.29987095303008,139.8320122307175L166.6209131749471,140.2532070485135L166.94195539686413,139.91272394224288L167.26299761878118,142.08123406627345L167.58403984069824,141.30614015137297L167.9050820626153,140.24788380548443L168.22612428453232,140.7993299918478L168.5471665064494,141.72339770061404L168.86820872836643,140.49823833502907L169.18925095028348,141.5427427065228L169.51029317220053,143.35584532331555L169.83133539411756,142.36750690407234L170.1523776160346,142.9609038464229L170.47341983795164,143.91014200878146L170.79446205986872,143.29328491230012L171.11550428178575,142.9231706544113L171.4365465037028,142.1079021027298L171.75758872561985,140.1357409793503L172.07863094753688,142.51164428701202L172.39967316945393,141.26778628534197L172.720715391371,141.1146714812882L173.04175761328804,139.2432026080112L173.36279983520507,141.9761212642086L173.68384205712215,141.24307247013402L174.00488427903917,143.76924317843051L174.32592650095623,142.91214561561543L174.64696872287325,143.28768707334876L174.9680109447903,143.51301194798873L175.28905316670736,138.30940690023857L175.6100953886244,128.06884390820954L175.93113761054147,133.19530605500873L176.2521798324585,138.6439833308812L176.57322205437555,141.31998969945647L176.8942642762926,139.66299353738628L177.21530649820963,130.06739588439467L177.53634872012668,135.5808372346163L177.8573909420437,119.01670214698314L178.1784331639608,109.07822109440326L178.49947538587782,104.59813245522595L178.82051760779487,101.91007927171954L179.14155982971192,100.0006473631416L179.46260205162895,100.33798821036542L179.783644273546,115.6669926408799L180.10468649546306,109.44119537853429L180.4257287173801,100.96011704554098L180.74677093929714,91.71907006710731L181.0678131612142,91.80984185105541L181.38885538313124,85.33910495499359L181.7098976050483,79.08386282956353L182.03093982696532,79.4831175329432L182.35198204888238,82.09547034276396L182.67302427079943,102.94188192947429L182.99406649271646,84.01012904324367L183.31510871463354,96.67567718790909L183.63615093655056,81.43680619220102L183.95719315846762,61.91248364818193L184.27823538038464,74.51908999664842L184.5992776023017,47.97405398120438L184.92031982421875,49.54643228191111L185.24136204613578,32.99045935236197L185.56240426805286,31.954875548856165L185.88344648996988,23.325325307951374L186.20448871188694,29.121795106950998L186.525530933804,20.735677047385963L186.84657315572102,70.57500592935932L187.16761537763807,63.7002034477523L187.4886575995551,80.04072185350245L187.80969982147218,94.88723287101261L188.1307420433892,102.3121394891481L188.45178426530626,92.8268835317457L188.7728264872233,66.966930061064L189.09386870914037,51.74755797712912L189.4149109310574,50.32753468709535L189.73595315297445,66.08512062762586L190.0569953748915,86.21727213701251L190.37803759680853,69.22976319218064L190.6990798187256,51.32565786495438L191.02012204064263,74.69219449314255L191.3411642625597,82.48351650209892L191.6622064844767,77.96370975477498L191.98324870639377,57.15922579945922L192.30429092831082,37.558135462890874L192.62533315022785,43.000281172448865L192.94637537214493,68.80716848221687L193.26741759406195,77.76610090164702L193.588459815979,60.89646046774601L193.90950203789606,51.07127620587954L194.23054425981312,33.905365706743055L194.55158648173014,71.9516191585429L194.87262870364717,47.02677147528934L195.19367092556425,56.393062740215086L195.51471314748127,67.64823747017887L195.83575536939833,71.43534232341594L196.15679759131538,68.66540526129808L196.47783981323244,63.14764304386381L196.79888203514946,82.97178559438467L197.11992425706651,70.84167124829342L197.44096647898357,76.61400257349999L197.7620087009006,69.39980142355556L198.08305092281768,44.90248083734866L198.4040931447347,47.703488395597674L198.72513536665176,40.782692974797556L199.04617758856878,32.774415742153934L199.36721981048584,31.82524938273133L199.6882620324029,35.11154954724131L200.00930425431991,29.075129687146074L200.330346476237,37.02067771157965L200.65138869815402,25.47500661016312L200.97243092007108,29.225203894381565L201.2934731419881,42.44952220845511L201.61451536390518,70.8495130916136L201.9355575858222,89.96570761082754L202.25659980773924,109.74022427963129L202.57764202965632,77.70813450674362L202.89868425157334,49.8874806872615L203.2197264734904,46.83868832538178L203.54076869540745,43.82301291435749L203.8618109173245,29.556407731829836L204.18285313924153,63.113644405638425L204.50389536115856,47.0627865960808L204.82493758307564,55.82147181574173L205.14597980499266,60.48348295059006L205.46702202690972,52.3064896879566L205.78806424882677,47.10369373190238L206.10910647074382,45.76161614911459L206.43014869266085,41.1005696192783L206.7511909145779,61.73534158083214L207.07223313649496,49.498404884412366L207.39327535841198,40.673242874189896L207.71431758032907,70.08034548952858L208.0353598022461,85.05520707246471L208.35640202416315,70.01552414582257L208.67744424608017,73.74551432422452L208.99848646799725,62.04330850298196L209.31952868991428,51.46278502854699L209.6405709118313,48.37707092710136L209.9616131337484,82.71084228007672L210.2826553556654,73.65110524444985L210.60369757758247,103.80726283996825L210.92473979949952,93.42735754376366L211.24578202141657,72.96261443928309L211.5668242433336,65.72596855065481L211.88786646525062,64.05338100374495L212.2089086871677,52.96542852747892L212.52995090908473,83.09105685251029L212.8509931310018,72.39623399553938L213.17203535291884,68.94534026609804L213.4930775748359,63.315604046743786L213.81411979675292,52.81936235175233L214.13516201867,83.89321714249672L214.45620424058703,73.47073016647947L214.77724646250405,66.03083798697264L215.09828868442114,92.70990251905125L215.41933090633816,76.98114140156747L215.74037312825521,67.24728473260308L216.06141535017224,65.26277071138803L216.38245757208932,60.80946231544365L216.70349979400635,61.6966772595665L217.02454201592337,71.12700618026382L217.34558423784046,61.06540361355381L217.66662645975748,59.77404204911373L217.98766868167453,50.10122515622605L218.30871090359156,50.52613498844998L218.62975312550864,49.29808089541376L218.95079534742567,50.34084843043675L219.2718375693427,55.118908930088224L219.59287979125978,52.94354525581906L219.9139220131768,49.26552706346456L220.23496423509386,79.68471598020521L220.5560064570109,91.70762936229305L220.87704867892796,78.75257749530552L221.198090900845,68.31014638884591L221.51913312276207,64.120887714289L221.8401753446791,58.64133252481362L222.16121756659612,55.353599411128414L222.48225978851318,90.1593593537083L222.80330201043023,77.23041549320641L223.12434423234728,71.25264916775004L223.4453864542643,63.5135893938385L223.7664286761814,62.429353511181034L224.08747089809842,63.855011970905394L224.40851312001544,81.0234069628167L224.72955534193252,106.1544438816695L225.05059756384955,100.76766613826685L225.3716397857666,84.78179955783804L225.69268200768363,75.783479606529L226.0137242296007,66.82528765405412L226.33476645151774,61.153772484095086L226.6558086734348,55.9712633912749L226.97685089535184,56.71755791574638L227.29789311726887,53.90273464721396L227.61893533918592,53.696840678465094L227.93997756110298,90.3517041080068L228.26101978302003,77.64242234425964L228.58206200493706,74.46585326312317L228.90310422685414,66.924511843433L229.22414644877117,61.80650699467063L229.5451886706882,59.32890408236146L229.86623089260524,61.99474231361367L230.1872731145223,59.145245275253146L230.50831533643935,78.19754694542533L230.82935755835638,69.16352805281429L231.15039978027346,70.26831668367834L231.47144200219049,92.28638975233345L231.7924842241075,106.38703358894891L232.1135264460246,83.40782005266134L232.43456866794162,96.01769179508557L232.75561088985867,96.16861487868708L233.0766531117757,103.08096869375278L233.39769533369278,82.61058110944016L233.7187375556098,73.5909485420679L234.03977977752686,69.36556899554103L234.3608219994439,64.75414127830605L234.68186422136094,53.97908468916381L235.002906443278,61.45425066396214L235.32394866519502,51.999150320557476L235.6449908871121,51.66489008704883L235.96603310902913,52.650733940840155L236.28707533094618,56.80144023480439L236.60811755286323,55.139464032545234L236.92915977478026,44.65107836001786L237.2502019966973,34.798846974811994L237.57124421861437,46.98010805060986L237.89228644053142,67.33926462894988L238.21332866244845,70.95335862020441L238.53437088436553,61.85101507294053L238.85541310628255,47.49160899035854L239.17645532819958,40.35896533318001L239.49749755011663,31.926979160235135L239.8185397720337,36.65558740611422L240.13958199395074,47.500952312442934L240.46062421586777,46.59317129438716L240.78166643778485,36.55730273238183L241.10270865970188,37.950781557031604L241.42375088161893,32.854868882339105L241.74479310353598,27.127921291256484L242.065835325453,19.539352757969226L242.38687754737006,16.76581162884159L242.7079197692871,17.474486939157998L243.02896199120417,24.424892091778503L243.3500042131212,17.917535238282426L243.67104643503825,14.013121126184785L243.9920886569553,11.670472658926172L244.31313087887233,10.264883578571045L244.63417310078938,10.014730127306223L244.95521532270644,9.271438059599063L245.2762575446235,8.825462818974756L245.59729976654052,8.557877674600178L245.9183419884576,52.88732635909362L246.23938421037462,34.99499579867151L246.56042643229168,24.25959746241824L246.8814686542087,17.818358460666246L247.20251087612576,13.953615059615089L247.5235530980428,11.634769018984372L247.84459531995984,10.243461394605959L248.16563754187692,9.408676819978922L248.48667976379394,10.687406066047402L248.807721985711,9.67504362284376L249.12876420762805,9.067626156921591L249.44980642954508,8.703175677368279L249.77084865146213,8.484505389636297L250.09189087337916,8.35330321699709L250.41293309529624,8.274581913413584L250.73397531721326,8.22734913126348L251.05501753913032,8.199009461973418L251.37605976104737,8.182005660399398L251.6971019829644,8.171803379454957L252.01814420488145,44.6474818232052L252.3391864267985,30.051089077138442L252.66022864871556,21.293253429498378L252.98127087063259,17.818152031759098L253.30231309254964,13.953491202270754L253.6233553144667,11.634694704577782L253.94439753638375,10.243416805962L254.26543975830077,9.408650066792518L254.58648198021783,8.90779002329083L254.90752420213488,8.60727399718985L255.2285664240519,36.60396423657073L255.549608645969,25.22497852515778L255.870650867886,18.397587098309998L256.1916930898031,14.30115224220134L256.5127353117201,11.84329132853614L256.83377753363715,10.368574780337013L257.15481975555423,9.483744851417555L257.47586197747125,8.952846894065857L257.7969041993883,8.634308119654833L258.1179464213053,21.790184786343673L258.4389886432224,16.33671085502155L258.7600308651394,13.064626496228243" fill="none"></path></g></g></g></g><g opacity="0.2"><g><g><g><path style="fill: none;" stroke="rgb(0, 119, 187)" stroke-width="2px" d="M32.10422219170464,146.07549924850463L32.42526441362169,146.81699924468995L32.74630663553874,147.55849924087525L33.067348857455784,148.29999923706055L33.38839107937283,147.55849924087525L33.70943330128988,143.10949926376344L34.030475523206924,148.29999923706055L34.35151774512397,148.29999923706055L34.67255996704102,150.52449922561647L34.993602188958064,148.29999923706055L35.314644410875104,149.78299922943114L35.63568663279216,146.81699924468995L35.9567288547092,145.33399925231933L36.27777107662625,146.81699924468995L36.5988132985433,149.04149923324584L36.91985552046034,149.04149923324584L37.240897742377385,149.78299922943114L37.56193996429443,147.55849924087525L37.882982186211485,149.04149923324584L38.204024408128525,148.29999923706055L38.52506663004557,149.04149923324584L38.84610885196262,145.33399925231933L39.16715107387967,149.04149923324584L39.48819329579671,143.85099925994874L39.80923551771376,149.78299922943114L40.130277739630806,148.29999923706055L40.45131996154785,146.07549924850463L40.77236218346489,148.29999923706055L41.093404405381946,141.62649927139282L41.41444662729899,149.78299922943114L41.73548884921603,149.78299922943114L42.05653107113308,147.55849924087525L42.37757329305013,148.29999923706055L42.69861551496718,149.04149923324584L43.01965773688422,148.29999923706055L43.34069995880127,149.04149923324584L43.66174218071831,148.29999923706055L43.98278440263537,147.55849924087525L44.30382662455241,149.04149923324584L44.624868846469454,146.81699924468995L44.9459110683865,149.78299922943114L45.26695329030355,149.04149923324584L45.587995512220594,149.78299922943114L45.90903773413764,147.55849924087525L46.23007995605469,148.29999923706055L46.551122177971735,146.07549924850463L46.872164399888774,149.04149923324584L47.19320662180583,149.04149923324584L47.514248843722875,149.04149923324584L47.83529106563992,144.59249925613403L48.15633328755696,149.04149923324584L48.477375509474015,148.29999923706055L48.79841773139106,148.29999923706055L49.11945995330811,147.55849924087525L49.44050217522515,149.04149923324584L49.761544397142195,148.29999923706055L50.08258661905925,149.78299922943114L50.403628840976296,149.78299922943114L50.724671062893336,150.52449922561647L51.04571328481038,146.81699924468995L51.36675550672743,148.29999923706055L51.687797728644476,144.59249925613403L52.00883995056152,146.81699924468995L52.32988217247857,149.78299922943114L52.650924394395616,147.55849924087525L52.971966616312656,149.78299922943114L53.29300883822971,148.29999923706055L53.61405106014676,146.07549924850463L53.935093282063804,148.29999923706055L54.25613550398084,149.78299922943114L54.57717772589789,144.59249925613403L54.898219947814944,149.04149923324584L55.21926216973199,149.04149923324584L55.54030439164903,146.07549924850463L55.86134661356608,148.29999923706055L56.18238883548313,149.78299922943114L56.50343105740018,147.55849924087525L56.82447327931722,147.55849924087525L57.145515501234264,148.29999923706055L57.46655772315131,149.04149923324584L57.787599945068365,149.04149923324584L58.108642166985405,148.29999923706055L58.42968438890245,149.78299922943114L58.7507266108195,147.55849924087525L59.071768832736545,146.07549924850463L59.39281105465359,148.29999923706055L59.71385327657064,146.81699924468995L60.034895498487685,146.07549924850463L60.35593772040473,144.59249925613403L60.67697994232177,146.07549924850463L60.998022164238826,147.55849924087525L61.31906438615587,147.55849924087525L61.64010660807292,146.81699924468995L61.96114882998996,146.07549924850463L62.28219105190701,147.55849924087525L62.60323327382406,146.07549924850463L62.9242754957411,148.29999923706055L63.245317717658146,149.04149923324584L63.56635993957519,149.78299922943114L63.88740216149225,147.55849924087525L64.20844438340929,145.33399925231933L64.52948660532633,146.81699924468995L64.85052882724338,146.81699924468995L65.17157104916043,141.62649927139282L65.49261327107747,146.07549924850463L65.81365549299451,146.07549924850463L66.13469771491157,144.59249925613403L66.45573993682862,146.07549924850463L66.77678215874566,143.85099925994874L67.0978243806627,147.55849924087525L67.41886660257975,143.10949926376344L67.73990882449681,148.29999923706055L68.06095104641385,147.55849924087525L68.38199326833089,139.40199928283693L68.70303549024794,144.59249925613403L69.02407771216498,140.14349927902222L69.34511993408204,137.177499294281L69.66616215599907,137.177499294281L69.98720437791613,141.62649927139282L70.30824659983317,120.12299938201903L70.62928882175021,132.7284993171692L70.95033104366726,143.85099925994874L71.27137326558432,149.78299922943114L71.59241548750136,149.78299922943114L71.9134577094184,150.52449922561647L72.23449993133545,148.29999923706055L72.5555421532525,148.29999923706055L72.87658437516954,147.55849924087525L73.1976265970866,147.55849924087525L73.51866881900362,149.78299922943114L73.83971104092068,148.29999923706055L74.16075326283773,148.29999923706055L74.48179548475477,149.78299922943114L74.80283770667182,149.78299922943114L75.12387992858886,149.78299922943114L75.44492215050592,147.55849924087525L75.76596437242297,146.07549924850463L76.08700659434,143.85099925994874L76.40804881625705,149.78299922943114L76.72909103817409,149.04149923324584L77.05013326009114,149.04149923324584L77.3711754820082,146.81699924468995L77.69221770392524,149.78299922943114L78.01325992584229,144.59249925613403L78.33430214775935,149.04149923324584L78.65534436967637,148.29999923706055L78.97638659159342,148.29999923706055L79.29742881351046,150.52449922561647L79.61847103542752,149.78299922943114L79.93951325734457,148.29999923706055L80.26055547926161,149.04149923324584L80.58159770117867,148.29999923706055L80.9026399230957,145.33399925231933L81.22368214501275,147.55849924087525L81.54472436692978,149.78299922943114L81.86576658884684,145.33399925231933L82.18680881076389,149.04149923324584L82.50785103268093,145.33399925231933L82.82889325459799,147.55849924087525L83.14993547651504,149.04149923324584L83.47097769843207,150.52449922561647L83.79201992034912,147.55849924087525L84.11306214226616,148.29999923706055L84.43410436418321,149.78299922943114L84.75514658610027,146.81699924468995L85.0761888080173,149.04149923324584L85.39723102993436,146.07549924850463L85.7182732518514,150.52449922561647L86.03931547376844,148.29999923706055L86.3603576956855,149.78299922943114L86.68139991760253,147.55849924087525L87.00244213951959,149.04149923324584L87.32348436143663,149.78299922943114L87.64452658335368,143.10949926376344L87.96556880527073,147.55849924087525L88.28661102718777,148.29999923706055L88.60765324910481,148.29999923706055L88.92869547102185,150.52449922561647L89.24973769293891,149.04149923324584L89.57077991485596,149.04149923324584L89.891822136773,148.29999923706055L90.21286435869006,149.04149923324584L90.5339065806071,149.78299922943114L90.85494880252415,146.81699924468995L91.17599102444119,149.78299922943114L91.49703324635823,148.29999923706055L91.81807546827528,149.78299922943114L92.13911769019232,148.29999923706055L92.46015991210938,149.78299922943114L92.78120213402643,146.81699924468995L93.10224435594347,146.07549924850463L93.42328657786051,148.29999923706055L93.74432879977755,148.29999923706055L94.0653710216946,149.04149923324584L94.38641324361166,149.04149923324584L94.7074554655287,149.04149923324584L95.02849768744575,145.33399925231933L95.3495399093628,149.78299922943114L95.67058213127984,147.55849924087525L95.99162435319688,148.29999923706055L96.31266657511392,142.3679992675781L96.63370879703098,148.29999923706055L96.95475101894803,149.04149923324584L97.27579324086507,145.33399925231933L97.59683546278212,146.81699924468995L97.91787768469916,146.81699924468995L98.23891990661622,149.78299922943114L98.55996212853326,150.52449922561647L98.8810043504503,149.04149923324584L99.20204657236735,148.29999923706055L99.52308879428439,149.78299922943114L99.84413101620144,149.78299922943114L100.1651732381185,146.81699924468995L100.48621546003554,146.07549924850463L100.80725768195259,147.55849924087525L101.12829990386962,149.78299922943114L101.44934212578667,148.29999923706055L101.77038434770373,147.55849924087525L102.09142656962077,147.55849924087525L102.41246879153782,149.04149923324584L102.73351101345486,146.81699924468995L103.05455323537191,144.59249925613403L103.37559545728895,141.62649927139282L103.69663767920599,145.33399925231933L104.01767990112305,137.177499294281L104.33872212304009,138.6604992866516L104.65976434495714,135.6944993019104L104.9808065668742,140.88499927520752L105.30184878879123,133.4699993133545L105.62289101070829,79.34049959182738L105.94393323262531,114.93249940872192L106.26497545454237,120.86449937820434L106.58601767645942,123.08899936676025L106.90705989837646,98.61949949264526L107.22810212029351,126.05499935150146L107.54914434221057,130.50399932861328L107.87018656412761,134.2114993095398L108.19122878604466,132.7284993171692L108.51227100796169,130.50399932861328L108.83331322987874,133.4699993133545L109.15435545179578,131.24549932479857L109.47539767371283,126.79649934768676L109.79643989562989,133.4699993133545L110.11748211754693,122.34749937057495L110.43852433946398,116.41549940109253L110.75956656138104,149.04149923324584L111.08060878329806,131.9869993209839L111.40165100521511,134.2114993095398L111.72269322713215,139.40199928283693L112.04373544904921,114.93249940872192L112.36477767096626,125.31349935531617L112.6858198928833,94.17049951553345L113.00686211480036,131.24549932479857L113.3279043367174,127.53799934387207L113.64894655863444,120.86449937820434L113.96998878055149,142.3679992675781L114.29103100246853,135.6944993019104L114.61207322438558,137.177499294281L114.93311544630262,129.02099933624268L115.25415766821968,134.9529993057251L115.57519989013673,73.40849962234496L115.89624211205376,120.12299938201903L116.21728433397081,110.48349943161011L116.53832655588785,94.17049951553345L116.8593687778049,111.22499942779541L117.18041099972196,74.89149961471557L117.501453221639,117.15699939727783L117.82249544355605,79.34049959182738L118.14353766547309,140.14349927902222L118.46457988739013,110.48349943161011L118.78562210930718,125.31349935531617L119.10666433122422,116.41549940109253L119.42770655314128,129.76249933242798L119.74874877505832,105.29299945831299L120.06979099697537,119.38149938583373L120.39083321889242,131.24549932479857L120.71187544080946,140.14349927902222L121.0329176627265,135.6944993019104L121.35395988464354,129.76249933242798L121.6750021065606,129.76249933242798L121.99604432847765,137.9189992904663L122.31708655039469,140.88499927520752L122.63812877231175,140.14349927902222L122.9591709942288,141.62649927139282L123.28021321614584,143.10949926376344L123.60125543806288,128.27949934005738L123.92229765997992,138.6604992866516L124.24333988189697,134.9529993057251L124.56438210381403,131.9869993209839L124.88542432573107,140.14349927902222L125.20646654764812,141.62649927139282L125.52750876956516,137.9189992904663L125.8485509914822,140.14349927902222L126.16959321339925,146.07549924850463L126.49063543531629,143.10949926376344L126.81167765723335,144.59249925613403L127.13271987915039,139.40199928283693L127.45376210106744,138.6604992866516L127.7748043229845,140.88499927520752L128.09584654490155,141.62649927139282L128.41688876681857,143.10949926376344L128.73793098873563,146.07549924850463L129.05897321065265,140.88499927520752L129.3800154325697,140.88499927520752L129.70105765448676,137.177499294281L130.02209987640381,145.33399925231933L130.34314209832087,140.14349927902222L130.66418432023792,137.9189992904663L130.98522654215495,137.177499294281L131.306268764072,140.14349927902222L131.62731098598903,141.62649927139282L131.94835320790608,143.10949926376344L132.26939542982313,139.40199928283693L132.5904376517402,143.10949926376344L132.91147987365724,140.14349927902222L133.23252209557427,140.88499927520752L133.55356431749132,136.4359992980957L133.87460653940838,143.85099925994874L134.1956487613254,143.10949926376344L134.51669098324246,147.55849924087525L134.8377332051595,145.33399925231933L135.15877542707656,140.14349927902222L135.47981764899362,144.59249925613403L135.80085987091064,140.14349927902222L136.1219020928277,143.85099925994874L136.44294431474472,135.6944993019104L136.76398653666178,140.88499927520752L137.08502875857883,142.3679992675781L137.40607098049588,144.59249925613403L137.72711320241294,143.10949926376344L138.04815542432996,139.40199928283693L138.36919764624702,137.9189992904663L138.69023986816407,142.3679992675781L139.0112820900811,143.10949926376344L139.33232431199815,146.81699924468995L139.6533665339152,140.88499927520752L139.97440875583226,146.81699924468995L140.2954509777493,136.4359992980957L140.61649319966634,143.10949926376344L140.9375354215834,140.88499927520752L141.25857764350042,143.85099925994874L141.57961986541747,143.85099925994874L141.90066208733452,143.10949926376344L142.22170430925158,141.62649927139282L142.54274653116863,140.14349927902222L142.8637887530857,140.88499927520752L143.1848309750027,140.14349927902222L143.50587319691977,144.59249925613403L143.8269154188368,145.33399925231933L144.14795764075384,143.10949926376344L144.4689998626709,142.3679992675781L144.79004208458792,143.10949926376344L145.111084306505,141.62649927139282L145.43212652842203,143.10949926376344L145.75316875033909,146.81699924468995L146.0742109722561,143.85099925994874L146.3952531941732,142.3679992675781L146.71629541609022,143.10949926376344L147.03733763800724,141.62649927139282L147.35837985992433,141.62649927139282L147.67942208184135,141.62649927139282L148.0004643037584,143.10949926376344L148.32150652567546,145.33399925231933L148.6425487475925,143.10949926376344L148.96359096950954,140.88499927520752L149.28463319142662,146.07549924850463L149.60567541334365,143.10949926376344L149.92671763526067,79.34049959182738L150.24775985717773,140.14349927902222L150.56880207909478,141.62649927139282L150.88984430101183,141.62649927139282L151.21088652292886,144.59249925613403L151.53192874484594,143.10949926376344L151.85297096676297,141.62649927139282L152.17401318868,143.10949926376344L152.49505541059708,134.9529993057251L152.8160976325141,145.33399925231933L153.13713985443115,141.62649927139282L153.45818207634818,137.177499294281L153.77922429826526,143.10949926376344L154.1002665201823,146.81699924468995L154.42130874209934,136.4359992980957L154.7423509640164,142.3679992675781L155.06339318593342,143.85099925994874L155.38443540785048,140.88499927520752L155.70547762976753,142.3679992675781L156.02651985168458,141.62649927139282L156.3475620736016,142.3679992675781L156.6686042955187,140.14349927902222L156.98964651743572,137.177499294281L157.31068873935274,145.33399925231933L157.6317309612698,140.88499927520752L157.95277318318685,138.6604992866516L158.2738154051039,142.3679992675781L158.59485762702093,144.59249925613403L158.915899848938,144.59249925613403L159.23694207085504,144.59249925613403L159.55798429277206,143.85099925994874L159.87902651468914,143.10949926376344L160.20006873660617,144.59249925613403L160.52111095852322,142.3679992675781L160.84215318044025,140.88499927520752L161.16319540235733,140.88499927520752L161.48423762427436,137.177499294281L161.8052798461914,145.33399925231933L162.12632206810846,143.85099925994874L162.4473642900255,142.3679992675781L162.76840651194254,142.3679992675781L163.08944873385957,141.62649927139282L163.41049095577665,138.6604992866516L163.73153317769368,139.40199928283693L164.05257539961073,143.10949926376344L164.37361762152779,136.4359992980957L164.6946598434448,142.3679992675781L165.01570206536186,140.88499927520752L165.33674428727892,143.10949926376344L165.65778650919597,143.10949926376344L165.978828731113,139.40199928283693L166.29987095303008,137.9189992904663L166.6209131749471,140.88499927520752L166.94195539686413,139.40199928283693L167.26299761878118,145.33399925231933L167.58403984069824,140.14349927902222L167.9050820626153,138.6604992866516L168.22612428453232,141.62649927139282L168.5471665064494,143.10949926376344L168.86820872836643,138.6604992866516L169.18925095028348,143.10949926376344L169.51029317220053,146.07549924850463L169.83133539411756,140.88499927520752L170.1523776160346,143.85099925994874L170.47341983795164,145.33399925231933L170.79446205986872,142.3679992675781L171.11550428178575,142.3679992675781L171.4365465037028,140.88499927520752L171.75758872561985,137.177499294281L172.07863094753688,146.07549924850463L172.39967316945393,139.40199928283693L172.720715391371,140.88499927520752L173.04175761328804,136.4359992980957L173.36279983520507,146.07549924850463L173.68384205712215,140.14349927902222L174.00488427903917,147.55849924087525L174.32592650095623,141.62649927139282L174.64696872287325,143.85099925994874L174.9680109447903,143.85099925994874L175.28905316670736,130.50399932861328L175.6100953886244,112.70799942016602L175.93113761054147,140.88499927520752L176.2521798324585,146.81699924468995L176.57322205437555,145.33399925231933L176.8942642762926,137.177499294281L177.21530649820963,115.67399940490722L177.53634872012668,143.85099925994874L177.8573909420437,94.17049951553345L178.1784331639608,94.17049951553345L178.49947538587782,97.87799949645996L178.82051760779487,97.87799949645996L179.14155982971192,97.13649950027465L179.46260205162895,100.84399948120117L179.783644273546,138.6604992866516L180.10468649546306,100.10249948501587L180.4257287173801,88.23849954605103L180.74677093929714,77.85749959945679L181.0678131612142,91.94599952697754L181.38885538313124,75.63299961090088L181.7098976050483,69.70099964141846L182.03093982696532,80.08199958801269L182.35198204888238,86.01399955749511L182.67302427079943,134.2114993095398L182.99406649271646,55.612499713897705L183.31510871463354,115.67399940490722L183.63615093655056,58.57849969863892L183.95719315846762,32.625999832153326L184.27823538038464,93.42899951934815L184.5992776023017,8.156499958038324L184.92031982421875,51.90499973297119L185.24136204613578,8.156499958038324L185.56240426805286,30.401499843597406L185.88344648996988,10.380999946594244L186.20448871188694,37.816499805450434L186.525530933804,8.156499958038324L186.84657315572102,145.33399925231933L187.16761537763807,53.3879997253418L187.4886575995551,104.5514994621277L187.80969982147218,117.15699939727783L188.1307420433892,113.44949941635132L188.45178426530626,78.59899959564208L188.7728264872233,28.176999855041515L189.09386870914037,28.918499851226812L189.4149109310574,48.19749975204468L189.73595315297445,89.72149953842163L190.0569953748915,116.41549940109253L190.37803759680853,43.74849977493287L190.6990798187256,24.469499874114973L191.02012204064263,109.7419994354248L191.3411642625597,94.17049951553345L191.6622064844767,71.18399963378907L191.98324870639377,25.952499866485596L192.30429092831082,8.156499958038324L192.62533315022785,51.16349973678588L192.94637537214493,107.5174994468689L193.26741759406195,91.20449953079223L193.588459815979,35.591999816894514L193.90950203789606,36.33349981307984L194.23054425981312,8.156499958038324L194.55158648173014,129.02099933624268L194.87262870364717,9.639499950408947L195.19367092556425,70.44249963760376L195.51471314748127,84.5309995651245L195.83575536939833,77.11599960327149L196.15679759131538,64.51049966812134L196.47783981323244,54.87099971771241L196.79888203514946,112.70799942016602L197.11992425706651,52.64649972915649L197.44096647898357,85.27249956130981L197.7620087009006,58.57849969863892L198.08305092281768,8.156499958038324L198.4040931447347,51.90499973297119L198.72513536665176,30.401499843597406L199.04617758856878,20.761999893188488L199.36721981048584,30.401499843597406L199.6882620324029,40.04099979400635L200.00930425431991,20.02049989700319L200.330346476237,48.938999748229975L200.65138869815402,8.156499958038324L200.97243092007108,34.85049982070922L201.2934731419881,62.28599967956542L201.61451536390518,113.44949941635132L201.9355575858222,118.63999938964844L202.25659980773924,139.40199928283693L202.57764202965632,29.65999984741211L202.89868425157334,8.156499958038324L203.2197264734904,42.26549978256227L203.54076869540745,39.299499797821056L203.8618109173245,8.156499958038324L204.18285313924153,113.44949941635132L204.50389536115856,22.98649988174438L204.82493758307564,68.95949964523315L205.14597980499266,67.47649965286254L205.46702202690972,40.04099979400635L205.78806424882677,39.299499797821056L206.10910647074382,43.74849977493287L206.43014869266085,34.10899982452392L206.7511909145779,92.68749952316284L207.07223313649496,31.142999839782732L207.39327535841198,27.43549985885619L207.71431758032907,114.19099941253663L208.0353598022461,107.5174994468689L208.35640202416315,47.45599975585938L208.67744424608017,79.34049959182738L208.99848646799725,44.489999771118164L209.31952868991428,35.591999816894514L209.6405709118313,43.74849977493287L209.9616131337484,134.2114993095398L210.2826553556654,60.06149969100953L210.60369757758247,149.04149923324584L210.92473979949952,77.85749959945679L211.24578202141657,42.26549978256227L211.5668242433336,54.87099971771241L211.88786646525062,61.544499683380124L212.2089086871677,36.33349981307984L212.52995090908473,128.27949934005738L212.8509931310018,56.353999710083L213.17203535291884,63.76899967193603L213.4930775748359,54.87099971771241L213.81411979675292,37.07499980926514L214.13516201867,130.50399932861328L214.45620424058703,57.83699970245361L214.77724646250405,54.87099971771241L215.09828868442114,132.7284993171692L215.41933090633816,53.3879997253418L215.74037312825521,52.64649972915649L216.06141535017224,62.28599967956542L216.38245757208932,54.12949972152711L216.70349979400635,63.02749967575073L217.02454201592337,85.27249956130981L217.34558423784046,45.97299976348876L217.66662645975748,57.83699970245361L217.98766868167453,35.591999816894514L218.30871090359156,51.16349973678588L218.62975312550864,47.45599975585938L218.95079534742567,51.90499973297119L219.2718375693427,62.28599967956542L219.59287979125978,49.68049974441527L219.9139220131768,43.74849977493287L220.23496423509386,125.31349935531617L220.5560064570109,109.7419994354248L220.87704867892796,59.31999969482422L221.198090900845,52.64649972915649L221.51913312276207,57.83699970245361L221.8401753446791,50.42199974060058L222.16121756659612,50.42199974060058L222.48225978851318,142.3679992675781L222.80330201043023,57.83699970245361L223.12434423234728,62.28599967956542L223.4453864542643,51.90499973297119L223.7664286761814,60.80299968719483L224.08747089809842,65.99349966049195L224.40851312001544,106.77599945068359L224.72955534193252,143.85099925994874L225.05059756384955,92.68749952316284L225.3716397857666,60.80299968719483L225.69268200768363,62.28599967956542L226.0137242296007,53.3879997253418L226.33476645151774,52.64649972915649L226.6558086734348,48.19749975204468L226.97685089535184,57.83699970245361L227.29789311726887,49.68049974441527L227.61893533918592,53.3879997253418L227.93997756110298,145.33399925231933L228.26101978302003,58.57849969863892L228.58206200493706,69.70099964141846L228.90310422685414,55.612499713897705L229.22414644877117,54.12949972152711L229.5451886706882,55.612499713897705L229.86623089260524,65.99349966049195L230.1872731145223,54.87099971771241L230.50831533643935,106.77599945068359L230.82935755835638,55.612499713897705L231.15039978027346,71.92549962997437L231.47144200219049,125.31349935531617L231.7924842241075,127.53799934387207L232.1135264460246,48.938999748229975L232.43456866794162,114.93249940872192L232.75561088985867,96.39499950408936L233.0766531117757,113.44949941635132L233.39769533369278,51.90499973297119L233.7187375556098,60.06149969100953L234.03977977752686,63.02749967575073L234.3608219994439,57.83699970245361L234.68186422136094,37.816499805450434L235.002906443278,72.66699962615967L235.32394866519502,37.816499805450434L235.6449908871121,51.16349973678588L235.96603310902913,54.12949972152711L236.28707533094618,63.02749967575073L236.60811755286323,52.64649972915649L236.92915977478026,28.918499851226812L237.2502019966973,20.02049989700319L237.57124421861437,65.25199966430665L237.89228644053142,97.87799949645996L238.21332866244845,76.3744996070862L238.53437088436553,48.19749975204468L238.85541310628255,25.952499866485596L239.17645532819958,29.65999984741211L239.49749755011663,19.278999900817865L239.8185397720337,43.74849977493287L240.13958199395074,63.76899967193603L240.46062421586777,45.23149976730346L240.78166643778485,21.503499889373785L241.10270865970188,40.04099979400635L241.42375088161893,25.2109998703003L241.74479310353598,18.53749990463257L242.065835325453,8.156499958038324L242.38687754737006,12.605499935150135L242.7079197692871,18.53749990463257L243.02896199120417,34.85049982070922L243.3500042131212,8.156499958038324L243.67104643503825,8.156499958038324L243.9920886569553,8.156499958038324L244.31313087887233,8.156499958038324L244.63417310078938,9.639499950408947L244.95521532270644,8.156499958038324L245.2762575446235,8.156499958038324L245.59729976654052,8.156499958038324L245.9183419884576,119.38149938583373L246.23938421037462,8.156499958038324L246.56042643229168,8.156499958038324L246.8814686542087,8.156499958038324L247.20251087612576,8.156499958038324L247.5235530980428,8.156499958038324L247.84459531995984,8.156499958038324L248.16563754187692,8.156499958038324L248.48667976379394,12.605499935150135L248.807721985711,8.156499958038324L249.12876420762805,8.156499958038324L249.44980642954508,8.156499958038324L249.77084865146213,8.156499958038324L250.09189087337916,8.156499958038324L250.41293309529624,8.156499958038324L250.73397531721326,8.156499958038324L251.05501753913032,8.156499958038324L251.37605976104737,8.156499958038324L251.6971019829644,8.156499958038324L252.01814420488145,99.36099948883057L252.3391864267985,8.156499958038324L252.66022864871556,8.156499958038324L252.98127087063259,12.605499935150135L253.30231309254964,8.156499958038324L253.6233553144667,8.156499958038324L253.94439753638375,8.156499958038324L254.26543975830077,8.156499958038324L254.58648198021783,8.156499958038324L254.90752420213488,8.156499958038324L255.2285664240519,78.59899959564208L255.549608645969,8.156499958038324L255.870650867886,8.156499958038324L256.1916930898031,8.156499958038324L256.5127353117201,8.156499958038324L256.83377753363715,8.156499958038324L257.15481975555423,8.156499958038324L257.47586197747125,8.156499958038324L257.7969041993883,8.156499958038324L258.1179464213053,41.52399978637695L258.4389886432224,8.156499958038324L258.7600308651394,8.156499958038324" fill="none"></path></g></g></g></g></g></g><g transform="translate(41, 177)" clip-path="url(#clip_1)"><clipPath id="clip_1"><rect width="288" height="22"></rect></clipPath><g><g><line x1="0" y1="0" x2="0" y2="5" style="visibility: inherit;" fill="rgb(0, 0, 0)" stroke="rgb(204, 204, 204)" stroke-width="1px"></line><line x1="32.10422219170464" y1="0" x2="32.10422219170464" y2="5" style="visibility: inherit;" fill="rgb(0, 0, 0)" stroke="rgb(204, 204, 204)" stroke-width="1px"></line><line x1="64.20844438340929" y1="0" x2="64.20844438340929" y2="5" style="visibility: inherit;" fill="rgb(0, 0, 0)" stroke="rgb(204, 204, 204)" stroke-width="1px"></line><line x1="96.31266657511392" y1="0" x2="96.31266657511392" y2="5" style="visibility: inherit;" fill="rgb(0, 0, 0)" stroke="rgb(204, 204, 204)" stroke-width="1px"></line><line x1="128.41688876681857" y1="0" x2="128.41688876681857" y2="5" style="visibility: inherit;" fill="rgb(0, 0, 0)" stroke="rgb(204, 204, 204)" stroke-width="1px"></line><line x1="160.52111095852322" y1="0" x2="160.52111095852322" y2="5" style="visibility: inherit;" fill="rgb(0, 0, 0)" stroke="rgb(204, 204, 204)" stroke-width="1px"></line><line x1="192.62533315022785" y1="0" x2="192.62533315022785" y2="5" style="visibility: inherit;" fill="rgb(0, 0, 0)" stroke="rgb(204, 204, 204)" stroke-width="1px"></line><line x1="224.72955534193252" y1="0" x2="224.72955534193252" y2="5" style="visibility: inherit;" fill="rgb(0, 0, 0)" stroke="rgb(204, 204, 204)" stroke-width="1px"></line><line x1="256.83377753363715" y1="0" x2="256.83377753363715" y2="5" style="visibility: inherit;" fill="rgb(0, 0, 0)" stroke="rgb(204, 204, 204)" stroke-width="1px"></line><line x1="288.9379997253418" y1="0" x2="288.9379997253418" y2="5" style="visibility: inherit;" fill="rgb(0, 0, 0)" stroke="rgb(204, 204, 204)" stroke-width="1px"></line></g><g transform="translate(0, 8)"><text style="text-anchor: middle; visibility: hidden; font-family: &quot;Helvetica Neue&quot;, sans-serif; font-size: 12px; font-weight: 200;" x="0" y="0" dx="0em" dy="0.95em" fill="rgb(50, 49, 63)" stroke="none" stroke-width="1px">-100</text><text style="text-anchor: middle; visibility: inherit; font-family: &quot;Helvetica Neue&quot;, sans-serif; font-size: 12px; font-weight: 200;" x="32.10422219170464" y="0" dx="0em" dy="0.95em" fill="rgb(50, 49, 63)" stroke="none" stroke-width="1px">0</text><text style="text-anchor: middle; visibility: inherit; font-family: &quot;Helvetica Neue&quot;, sans-serif; font-size: 12px; font-weight: 200;" x="64.20844438340929" y="0" dx="0em" dy="0.95em" fill="rgb(50, 49, 63)" stroke="none" stroke-width="1px">100</text><text style="text-anchor: middle; visibility: inherit; font-family: &quot;Helvetica Neue&quot;, sans-serif; font-size: 12px; font-weight: 200;" x="96.31266657511392" y="0" dx="0em" dy="0.95em" fill="rgb(50, 49, 63)" stroke="none" stroke-width="1px">200</text><text style="text-anchor: middle; visibility: inherit; font-family: &quot;Helvetica Neue&quot;, sans-serif; font-size: 12px; font-weight: 200;" x="128.41688876681857" y="0" dx="0em" dy="0.95em" fill="rgb(50, 49, 63)" stroke="none" stroke-width="1px">300</text><text style="text-anchor: middle; visibility: inherit; font-family: &quot;Helvetica Neue&quot;, sans-serif; font-size: 12px; font-weight: 200;" x="160.52111095852322" y="0" dx="0em" dy="0.95em" fill="rgb(50, 49, 63)" stroke="none" stroke-width="1px">400</text><text style="text-anchor: middle; visibility: inherit; font-family: &quot;Helvetica Neue&quot;, sans-serif; font-size: 12px; font-weight: 200;" x="192.62533315022785" y="0" dx="0em" dy="0.95em" fill="rgb(50, 49, 63)" stroke="none" stroke-width="1px">500</text><text style="text-anchor: middle; visibility: inherit; font-family: &quot;Helvetica Neue&quot;, sans-serif; font-size: 12px; font-weight: 200;" x="224.72955534193252" y="0" dx="0em" dy="0.95em" fill="rgb(50, 49, 63)" stroke="none" stroke-width="1px">600</text><text style="text-anchor: middle; visibility: inherit; font-family: &quot;Helvetica Neue&quot;, sans-serif; font-size: 12px; font-weight: 200;" x="256.83377753363715" y="0" dx="0em" dy="0.95em" fill="rgb(50, 49, 63)" stroke="none" stroke-width="1px">700</text><text style="text-anchor: middle; visibility: hidden; font-family: &quot;Helvetica Neue&quot;, sans-serif; font-size: 12px; font-weight: 200;" x="288.9379997253418" y="0" dx="0em" dy="0.95em" fill="rgb(50, 49, 63)" stroke="none" stroke-width="1px">800</text></g><line x1="0" y1="0" x2="288.9379997253418" y2="0" fill="rgb(0, 0, 0)" stroke="rgb(204, 204, 204)" stroke-width="1px"></line></g></g></g></g></svg>