<svg viewBox="0 0 330 200" xmlns="http://www.w3.org/2000/svg"><g><g><g><g><g><line x1="51.41600036621094" y1="177.95999908447266" x2="46.41600036621094" y2="177.95999908447266" style="visibility: inherit;" fill="rgb(0, 0, 0)" stroke="rgb(204, 204, 204)" stroke-width="1px"></line><line x1="51.41600036621094" y1="161.7818173495206" x2="46.41600036621094" y2="161.7818173495206" style="visibility: inherit;" fill="rgb(0, 0, 0)" stroke="rgb(204, 204, 204)" stroke-width="1px"></line><line x1="51.41600036621094" y1="145.60363561456853" x2="46.41600036621094" y2="145.60363561456853" style="visibility: inherit;" fill="rgb(0, 0, 0)" stroke="rgb(204, 204, 204)" stroke-width="1px"></line><line x1="51.41600036621094" y1="129.42545387961647" x2="46.41600036621094" y2="129.42545387961647" style="visibility: inherit;" fill="rgb(0, 0, 0)" stroke="rgb(204, 204, 204)" stroke-width="1px"></line><line x1="51.41600036621094" y1="113.24727214466442" x2="46.41600036621094" y2="113.24727214466442" style="visibility: inherit;" fill="rgb(0, 0, 0)" stroke="rgb(204, 204, 204)" stroke-width="1px"></line><line x1="51.41600036621094" y1="97.06909040971236" x2="46.41600036621094" y2="97.06909040971236" style="visibility: inherit;" fill="rgb(0, 0, 0)" stroke="rgb(204, 204, 204)" stroke-width="1px"></line><line x1="51.41600036621094" y1="80.89090867476031" x2="46.41600036621094" y2="80.89090867476031" style="visibility: inherit;" fill="rgb(0, 0, 0)" stroke="rgb(204, 204, 204)" stroke-width="1px"></line><line x1="51.41600036621094" y1="64.71272693980826" x2="46.41600036621094" y2="64.71272693980826" style="visibility: inherit;" fill="rgb(0, 0, 0)" stroke="rgb(204, 204, 204)" stroke-width="1px"></line><line x1="51.41600036621094" y1="48.53454520485619" x2="46.41600036621094" y2="48.53454520485619" style="visibility: inherit;" fill="rgb(0, 0, 0)" stroke="rgb(204, 204, 204)" stroke-width="1px"></line><line x1="51.41600036621094" y1="32.356363469904124" x2="46.41600036621094" y2="32.356363469904124" style="visibility: inherit;" fill="rgb(0, 0, 0)" stroke="rgb(204, 204, 204)" stroke-width="1px"></line><line x1="51.41600036621094" y1="16.178181734952062" x2="46.41600036621094" y2="16.178181734952062" style="visibility: inherit;" fill="rgb(0, 0, 0)" stroke="rgb(204, 204, 204)" stroke-width="1px"></line><line x1="51.41600036621094" y1="0" x2="46.41600036621094" y2="0" style="visibility: inherit;" fill="rgb(0, 0, 0)" stroke="rgb(204, 204, 204)" stroke-width="1px"></line></g><g transform="translate(41.41600036621094, 0)"><text style="text-anchor: end; visibility: hidden; font-family: &quot;Helvetica Neue&quot;, sans-serif; font-size: 12px; font-weight: 200;" x="0" y="177.95999908447266" dx="0em" dy="0.3em" fill="rgb(50, 49, 63)" stroke="none" stroke-width="1px">-0.1</text><text style="text-anchor: end; visibility: inherit; font-family: &quot;Helvetica Neue&quot;, sans-serif; font-size: 12px; font-weight: 200;" x="0" y="161.7818173495206" dx="0em" dy="0.3em" fill="rgb(50, 49, 63)" stroke="none" stroke-width="1px">0</text><text style="text-anchor: end; visibility: hidden; font-family: &quot;Helvetica Neue&quot;, sans-serif; font-size: 12px; font-weight: 200;" x="0" y="145.60363561456853" dx="0em" dy="0.3em" fill="rgb(50, 49, 63)" stroke="none" stroke-width="1px">0.1</text><text style="text-anchor: end; visibility: inherit; font-family: &quot;Helvetica Neue&quot;, sans-serif; font-size: 12px; font-weight: 200;" x="0" y="129.42545387961647" dx="0em" dy="0.3em" fill="rgb(50, 49, 63)" stroke="none" stroke-width="1px">0.2</text><text style="text-anchor: end; visibility: hidden; font-family: &quot;Helvetica Neue&quot;, sans-serif; font-size: 12px; font-weight: 200;" x="0" y="113.24727214466442" dx="0em" dy="0.3em" fill="rgb(50, 49, 63)" stroke="none" stroke-width="1px">0.3</text><text style="text-anchor: end; visibility: inherit; font-family: &quot;Helvetica Neue&quot;, sans-serif; font-size: 12px; font-weight: 200;" x="0" y="97.06909040971236" dx="0em" dy="0.3em" fill="rgb(50, 49, 63)" stroke="none" stroke-width="1px">0.4</text><text style="text-anchor: end; visibility: hidden; font-family: &quot;Helvetica Neue&quot;, sans-serif; font-size: 12px; font-weight: 200;" x="0" y="80.89090867476031" dx="0em" dy="0.3em" fill="rgb(50, 49, 63)" stroke="none" stroke-width="1px">0.5</text><text style="text-anchor: end; visibility: inherit; font-family: &quot;Helvetica Neue&quot;, sans-serif; font-size: 12px; font-weight: 200;" x="0" y="64.71272693980826" dx="0em" dy="0.3em" fill="rgb(50, 49, 63)" stroke="none" stroke-width="1px">0.6</text><text style="text-anchor: end; visibility: hidden; font-family: &quot;Helvetica Neue&quot;, sans-serif; font-size: 12px; font-weight: 200;" x="0" y="48.53454520485619" dx="0em" dy="0.3em" fill="rgb(50, 49, 63)" stroke="none" stroke-width="1px">0.7</text><text style="text-anchor: end; visibility: inherit; font-family: &quot;Helvetica Neue&quot;, sans-serif; font-size: 12px; font-weight: 200;" x="0" y="32.356363469904124" dx="0em" dy="0.3em" fill="rgb(50, 49, 63)" stroke="none" stroke-width="1px">0.8</text><text style="text-anchor: end; visibility: hidden; font-family: &quot;Helvetica Neue&quot;, sans-serif; font-size: 12px; font-weight: 200;" x="0" y="16.178181734952062" dx="0em" dy="0.3em" fill="rgb(50, 49, 63)" stroke="none" stroke-width="1px">0.9</text><text style="text-anchor: end; visibility: hidden; font-family: &quot;Helvetica Neue&quot;, sans-serif; font-size: 12px; font-weight: 200;" x="0" y="0" dx="0em" dy="0.3em" fill="rgb(50, 49, 63)" stroke="none" stroke-width="1px">1</text></g><line x1="51.41600036621094" y1="0" x2="51.41600036621094" y2="177.95999908447266" fill="rgb(0, 0, 0)" stroke="rgb(204, 204, 204)" stroke-width="1px"></line></g></g><g transform="translate(51, 0)" clip-path="url(#clip_0)"><clipPath id="clip_0"><rect width="278" height="177"></rect></clipPath><g><g><g><line x1="0" y1="0" x2="0" y2="177.95999908447266" fill="rgb(0, 0, 0)" stroke="rgb(60, 60, 60)" stroke-width="1px" opacity="0.25"></line><line x1="27.858399963378908" y1="0" x2="27.858399963378908" y2="177.95999908447266" fill="rgb(0, 0, 0)" stroke="rgb(60, 60, 60)" stroke-width="1px" opacity="0.25"></line><line x1="55.716799926757815" y1="0" x2="55.716799926757815" y2="177.95999908447266" fill="rgb(0, 0, 0)" stroke="rgb(60, 60, 60)" stroke-width="1px" opacity="0.25"></line><line x1="83.57519989013672" y1="0" x2="83.57519989013672" y2="177.95999908447266" fill="rgb(0, 0, 0)" stroke="rgb(60, 60, 60)" stroke-width="1px" opacity="0.25"></line><line x1="111.43359985351563" y1="0" x2="111.43359985351563" y2="177.95999908447266" fill="rgb(0, 0, 0)" stroke="rgb(60, 60, 60)" stroke-width="1px" opacity="0.25"></line><line x1="139.29199981689453" y1="0" x2="139.29199981689453" y2="177.95999908447266" fill="rgb(0, 0, 0)" stroke="rgb(60, 60, 60)" stroke-width="1px" opacity="0.25"></line><line x1="167.15039978027343" y1="0" x2="167.15039978027343" y2="177.95999908447266" fill="rgb(0, 0, 0)" stroke="rgb(60, 60, 60)" stroke-width="1px" opacity="0.25"></line><line x1="195.00879974365233" y1="0" x2="195.00879974365233" y2="177.95999908447266" fill="rgb(0, 0, 0)" stroke="rgb(60, 60, 60)" stroke-width="1px" opacity="0.25"></line><line x1="222.86719970703126" y1="0" x2="222.86719970703126" y2="177.95999908447266" fill="rgb(0, 0, 0)" stroke="rgb(60, 60, 60)" stroke-width="1px" opacity="0.25"></line><line x1="250.72559967041016" y1="0" x2="250.72559967041016" y2="177.95999908447266" fill="rgb(0, 0, 0)" stroke="rgb(60, 60, 60)" stroke-width="1px" opacity="0.25"></line><line x1="278.58399963378906" y1="0" x2="278.58399963378906" y2="177.95999908447266" fill="rgb(0, 0, 0)" stroke="rgb(60, 60, 60)" stroke-width="1px" opacity="0.25"></line></g><g><line x1="0" y1="177.95999908447266" x2="278.58399963378906" y2="177.95999908447266" fill="rgb(0, 0, 0)" stroke="rgb(60, 60, 60)" stroke-width="1px" opacity="0.25"></line><line x1="0" y1="161.7818173495206" x2="278.58399963378906" y2="161.7818173495206" fill="rgb(0, 0, 0)" stroke="rgb(60, 60, 60)" stroke-width="1px" opacity="0.25"></line><line x1="0" y1="145.60363561456853" x2="278.58399963378906" y2="145.60363561456853" fill="rgb(0, 0, 0)" stroke="rgb(60, 60, 60)" stroke-width="1px" opacity="0.25"></line><line x1="0" y1="129.42545387961647" x2="278.58399963378906" y2="129.42545387961647" fill="rgb(0, 0, 0)" stroke="rgb(60, 60, 60)" stroke-width="1px" opacity="0.25"></line><line x1="0" y1="113.24727214466442" x2="278.58399963378906" y2="113.24727214466442" fill="rgb(0, 0, 0)" stroke="rgb(60, 60, 60)" stroke-width="1px" opacity="0.25"></line><line x1="0" y1="97.06909040971236" x2="278.58399963378906" y2="97.06909040971236" fill="rgb(0, 0, 0)" stroke="rgb(60, 60, 60)" stroke-width="1px" opacity="0.25"></line><line x1="0" y1="80.89090867476031" x2="278.58399963378906" y2="80.89090867476031" fill="rgb(0, 0, 0)" stroke="rgb(60, 60, 60)" stroke-width="1px" opacity="0.25"></line><line x1="0" y1="64.71272693980826" x2="278.58399963378906" y2="64.71272693980826" fill="rgb(0, 0, 0)" stroke="rgb(60, 60, 60)" stroke-width="1px" opacity="0.25"></line><line x1="0" y1="48.53454520485619" x2="278.58399963378906" y2="48.53454520485619" fill="rgb(0, 0, 0)" stroke="rgb(60, 60, 60)" stroke-width="1px" opacity="0.25"></line><line x1="0" y1="32.356363469904124" x2="278.58399963378906" y2="32.356363469904124" fill="rgb(0, 0, 0)" stroke="rgb(60, 60, 60)" stroke-width="1px" opacity="0.25"></line><line x1="0" y1="16.178181734952062" x2="278.58399963378906" y2="16.178181734952062" fill="rgb(0, 0, 0)" stroke="rgb(60, 60, 60)" stroke-width="1px" opacity="0.25"></line><line x1="0" y1="0" x2="278.58399963378906" y2="0" fill="rgb(0, 0, 0)" stroke="rgb(60, 60, 60)" stroke-width="1px" opacity="0.25"></line></g></g></g><g><g><line x1="0" y1="161.7818173495206" x2="278.58399963378906" y2="161.7818173495206" fill="rgb(0, 0, 0)" stroke="rgb(153, 153, 153)" stroke-width="1.5px"></line></g></g><g><g><line x1="27.858399963378908" y1="0" x2="27.858399963378908" y2="177.95999908447266" fill="rgb(0, 0, 0)" stroke="rgb(153, 153, 153)" stroke-width="1.5px"></line></g></g><g><g><g><g><g><path style="fill: none;" stroke="rgb(0, 119, 187)" stroke-width="2px" d="M29.379468601379394,-18.519805738622097L29.574477401123048,2.8188668974184736L29.585620761108398,10.378518418723218L29.630194201049804,21.225472077940424L30.204077240295412,-3.845052089612608L30.499376279907224,-4.799956975110945L30.844820439453123,16.777357047383305L31.084402679138183,22.945157662001947L31.123404439086915,23.98018518852018L31.390845078735353,8.035183486998676L31.463276918640137,5.958604529375066L31.596997238464358,-4.561123493353136L31.836579478149417,-13.109340798646286L31.88115291809082,7.8429637610402665L32.15416523773193,11.164404033366168L32.232168757629395,19.985840788359496L32.326887317504884,33.40327610339085L32.36031739746094,28.38535178802323L32.51632443725586,30.573421992211593L33.26850123626709,24.570948306928102L33.50808347595215,2.6514692920592324L33.79781083557129,-14.178612611509607L34.00953467529297,-3.5495415719702237L34.43298235473633,8.374041991673153L34.884288434143066,21.38894787384615L35.19073083374023,23.2984704016001L35.20744587371826,0.4880193637918069L35.28544939361572,16.954533352437238L35.30773611358642,7.976365031812861L35.575176753234864,8.071541608502855L35.614178513183596,20.01675128909301L35.85933243286133,21.111612584799104L36.0264828326416,18.368395122982804L36.34406859222412,31.036869018740447L36.50564731201172,31.165112416199946L36.59479419189453,47.0078383171404L36.68394107177734,29.750236082748188L37.28011083099365,27.9857861763291L37.4305461907959,23.879146306021568L37.51969307067871,31.073696999137553L37.53640811065674,27.94927706436735L37.78156203033447,26.351292846140723L38.132577869873046,31.10783116302676L38.25515482971191,32.09572033296243L38.316443309631346,40.686106414627204L38.53931050933838,31.397655493665525L38.63402906921387,38.14217782803456L38.706460909118654,30.14775779665146L39.2023404284668,20.97093947608795L39.53664122802734,25.846951326424602L40.04366410736084,27.565049232945256L40.11052426727295,15.286264053685528L40.28881802703857,16.218427361559037L40.32224810699463,17.717939752574807L40.43368170684814,13.134354662618733L40.461540106811526,33.86038806321142L40.71226570648193,36.339865120632254L41.16914346588135,14.343316967733301L41.431012425537105,23.735397203483217L41.5257309854126,26.6453323075566L41.536874345397955,31.49406995426898L41.564732745361326,4.3976683041287L41.704024745178224,20.69048846683836L41.70959642517089,27.02844654700465L41.77645658508301,17.00260945251651L41.80431498504639,36.07935712170115L41.96589370483398,30.431240381085075L42.049468904724115,24.056192419512172L42.08289898468018,54.07982342076876L42.81836074371338,64.2589411125052L43.124803143310544,57.100689502806645L44.38957450164795,58.61493569539242L44.78516378112793,64.45481746323595L44.80187882110595,58.97500610690274L45.125036260681156,65.78302716078733L45.470480420227055,51.42660093587378L45.85492633972168,49.071959445125145L45.93292985961914,32.51213250497983L45.9440732196045,22.144795429651737L45.94964489959717,39.41605649875609L46.272802339172365,40.04458138536273L47.24784633789063,46.271856717791565L48.01673817687988,42.99330914344546L48.02788153686523,27.330479333736037L48.306465536499026,37.813893692279805L48.702054815979004,38.58428429826992L48.99178217559814,43.86001974977842L49.108787455444336,49.238050811609185L49.14778921539306,50.02978599565897L49.74395897460938,48.762396590226814L49.8999660144043,50.49941698609061L50.05597305419922,41.118057848414566L50.345700413818356,48.41082707109615L50.69114457336426,60.651427223044365L51.237169212646485,55.555748276698L51.40989129241944,46.744012123206915L51.43774969238281,53.19909533914611L51.91134249176026,64.75628633101523L51.922485851745606,70.72854331459214L52.37379193115235,66.10262465081168L52.886386490478515,51.406654297712805L52.981105050354,66.46097418741016L53.09811033020019,55.65581821290995L53.844715449218754,57.72455355815788L53.867002169189455,79.3725884493191L53.91157560913086,97.20552008098655L54.535603768310544,85.83335755078438L54.61360728820801,85.45658853698863L54.82533112792969,73.39223695990343L54.8921912878418,67.46590777327248L55.12620184753418,60.83656723743724L55.55522120697021,76.04499220028477L55.995383926391604,75.41541866004751L56.00652728637695,52.26046107789432L56.30739800598144,63.43435235881168L56.46340504577637,71.40142535001057L57.048431445007324,65.64407376952082L57.549882644348145,73.93681749080946L57.639029524230956,64.35523064868471L57.71703304412842,68.08814278400023L58.05690552368164,64.27612648461641L58.59735848297119,52.43807067334107L58.77565224273682,67.96140736814348L59.499970641784664,72.98803909811883L59.745124561462404,73.6872112230297L60.21871736083984,65.63267715615112L60.31343592071533,74.67382494101204L60.33015096069336,72.56773784788548L60.53073144042969,71.86447971497829L60.569733200378415,68.39119144864486L60.77031368011475,66.61737811759117L60.887318959960936,53.75597340847219L61.232763119506835,64.93165939514334L61.344196719360355,62.36126111134729L61.962653198547365,77.1754904084602L62.01836999847412,80.08380350695398L62.40281591796875,82.04279923414951L62.47524775787353,80.58468449571058L62.50867783782959,82.68461682009003L62.581109677734375,79.71009749624362L62.898695437316896,54.046589092734806L63.02684407714844,52.84498216439971L63.05470247711182,51.70465392392515L63.383431596679685,58.08144761499268L64.185753515625,62.64715335109946L64.48662423522948,53.553758032511524L64.64820295501708,57.33047688402441L64.94907367462157,61.400040284944055L65.16636919433593,73.79063895428649L65.18308423431397,60.07706100761585L65.24994439422608,27.287331157367902L65.42266647399902,35.8915223944544L66.0021211932373,56.15907064480591L66.04669463317872,50.668550162903756L66.13026983306885,58.03055143595304L66.6707227923584,63.838226694152326L66.81558647216796,83.61745603533547L66.93816343200683,85.49486312345608L67.450757991333,91.45474236584046L67.49533143127441,89.22141875235882L67.72377031097412,77.6679151829537L68.23636487030029,83.50274800769454L68.59295238983154,84.26164079401033L68.86039302947998,85.10932872402412L68.98854166931152,90.4322525775582L69.09440358917236,72.01237322255946L69.36741590881347,80.73073724115889L69.42313270874024,78.9686513691561L69.43984774871826,75.5673766771385L69.5234229486084,68.38374625051982L69.70728838836669,53.88105707626214L70.68790406707764,52.92273833271666L70.72133414703369,49.20477869608135L71.09463670654296,21.821777710370384L71.25064374633789,35.05413570092651L71.30636054626466,54.30779466836405L71.5013693460083,60.98254850294333L71.87467190551757,60.64739545076313L72.0529656652832,71.70574692047151L72.38169478485108,54.130854953237545L72.57670358459472,64.73294662690527L72.79957078430175,57.95198242402269L73.43474230346679,30.757725169877062L73.62975110321044,28.255418625002875L73.6631811831665,31.337590053845332L74.04762710266112,55.804525226776775L74.29278102233886,52.338188028578614L74.45435974212647,66.36739086601246L74.48221814208983,60.991765459135394L74.53236326202392,65.42040285135138L75.03381446136476,72.1888213470873L75.05052950134277,77.3856766887092L75.2065365411377,86.58534246845784L75.26225334106445,90.68550716792849L75.58541078063965,87.55955821177633L75.7804195803833,81.60262662982134L75.96985670013427,66.47251337913684L76.30415749969482,70.42305528254805L76.99504581878662,62.66862085722957L77.32377493835449,65.17938208561534L77.46863861816406,68.01427059116575L77.48535365814209,66.29093123210143L77.60235893798827,68.76076596956719L77.64136069793702,82.07250975862168L77.9645181375122,88.69502299573311L77.99794821746826,89.61952921617785L78.3099622970581,86.27556409974322L79.26271957580566,60.20235459665298L79.30172133575441,72.0819166661607L79.45215669555664,89.77830921779082L79.7641707751465,89.28400711764604L79.9424645349121,80.3205044889852L80.29905205444337,60.457329943525295L80.4272006942749,74.292294206874L80.61106613403321,66.9661083505037L81.05122885345459,75.72640738764284L81.09023061340332,74.06802433622215L81.1626624533081,69.10101803925096L81.49696325286865,68.54372831405112L81.66411365264892,89.2487776075394L81.79226229248047,94.24467767923088L81.89255253234863,92.29105776937095L82.70044613128663,75.65607581059865L83.05703365081787,79.18317470893058L83.89835732971191,82.07914930321033L84.04322100952149,74.46244023220775L84.51124212890626,83.85760944418507L85.11298356811524,98.26789183842844L85.15198532806396,81.89013741970435L85.78158516723633,107.68954231967865L85.79830020721435,89.16626724623839L85.91530548706055,64.04754831872836L86.24403460662842,75.17267669160161L86.29975140655517,87.62902682562371L86.48361684631348,88.6026068256681L86.95720964569091,90.05503862750842L87.12993172546386,104.34931126662772L87.21907860534668,86.85127083624408L87.31379716522216,86.0553561099746L87.5366643649292,86.52858070829544L87.79296164459228,103.33683466905738L87.79853332458497,105.63830626403438L87.92111028442383,98.03277577886377L88.1161190841675,100.54722106643737L88.26098276397705,106.87196785112548L88.31112788391114,106.84944290857369L88.60085524353028,101.93076292236597L88.6175702835083,100.72459868534473L88.80700740325928,106.90250828082314L88.82929412322997,99.9718136532642L88.95744276306152,90.61771491188125L88.99087284301758,87.98481852209531L89.00201620300292,89.507149480127L89.22488340270996,97.62772770684202L89.25831348266603,89.55418970924315L89.35860372253417,90.88255633996086L89.71519124206543,90.29194263643015L89.82105316192626,83.99072803389427L89.87119828186034,80.85328803141597L90.25007252136231,94.31247233284294L90.26121588134765,98.56026880316284L90.5955166809082,109.85702310222841L91.48141379974365,101.72312677363027L91.77671283935547,98.36954532286215L91.888146439209,92.36649666560963L92.06086851898192,90.17903526157329L92.111013638916,103.19131834529551L92.20573219879151,103.57225201907089L92.300450758667,92.01026043168045L92.7573285180664,107.59506868199344L92.88547715789795,108.23653193567525L92.9634806777954,95.02902316502148L93.37578499725342,91.24667311071471L94.01095651641845,93.04549159155306L94.54583779571534,100.7498966482005L94.5736961956787,98.68945038355653L94.77427667541504,90.60251818006459L94.94699875518799,89.0891909460824L95.48745171447754,81.91758317731762L95.6323153942871,91.1260411209875L95.65460211425781,93.750557703096L95.74374899414062,90.72692001473914L95.97775955383301,89.83692908602826L96.33434707336426,73.94528278979483L96.35106211334228,91.6185586785098L96.4402089932251,84.30938717402383L96.97509027252198,81.92840239279614L97.2703893121338,80.31757909739999L97.79969891143799,65.57284022228431L98.45715715057374,60.78912621986488L98.61316419036865,65.4081163348147L98.94189330993652,81.51308812328195L99.20376226959229,89.09337576886526L99.60492322906495,98.3818922566974L99.71078514892578,86.74003960075254L99.95036738861084,95.81577049668502L100.38495842803955,102.58766978424251L100.47967698791504,99.24419233083833L100.63011234771729,106.9465678000734L100.74711762756348,108.6958237357095L100.81397778747558,117.9270809633884L100.89755298736573,112.78223991001889L100.91983970733644,96.3927229923282L101.01455826721191,92.95132676517548L101.21513874694824,87.65278821436665L101.43800594665527,100.99699106203212L101.62187138641357,101.87452778207445L102.2347561856079,100.34705565629852L102.53005522521973,97.65833358487306L102.55234194519043,101.30493876686388L102.66377554504395,106.92225038615078L102.93678786468506,101.3691981501699L103.09836658447266,94.6517644952708L103.33237714416505,104.18206408514985L103.6165328237915,96.91511210808964L103.74468146362305,105.63864479337451L104.07341058319092,98.52387050920314L104.09012562316896,104.56372594896263L104.45228482269287,95.97979078568768L104.61386354248047,108.42713819003845L104.80330066223144,105.71516847122682L104.9983094619751,75.59079064755676L105.21560498168945,90.063241786763L105.72819954101563,93.64000791295702L105.8507765008545,94.59877771784366L106.3076542602539,99.75690645007295L107.09326113922118,111.25396564175017L107.4609920187378,103.77443683969176L107.49999377868653,92.35754030454663L107.5501388986206,106.3857641772026L107.6448574584961,117.83874974378436L107.7117176184082,101.89172891340559L107.74514769836425,90.69134722111735L108.07387681793213,86.4070772384492L108.35246081756593,89.61590026997621L108.61432977722168,96.56131268974731L108.81491025695802,99.42032456286748L108.94863057678222,106.91653614977689L108.96534561676025,108.77885126645866L109.38322161621093,106.75601247171146L109.416651696167,111.49416026516506L109.58380209594726,103.4210777962788L109.63394721588135,98.11430125069901L109.6896640158081,94.38304432444751L110.20225857513428,92.00734873904915L110.20783025512695,101.3338027050661L110.25240369506837,91.56788844967238L110.27469041503907,92.73748951830395L110.36940897491455,91.61490280244864L110.7259964944458,99.60268116040154L110.83185841430665,104.70286949341404L111.02129553405761,94.99350371722008L111.58403521331788,103.30804055013544L111.93505105285644,107.43553170005839L112.19134833251954,99.02666196122567L112.43650225219727,103.46746654142376L112.5423641720581,104.95142298226766L112.91566673156738,96.23110860995573L113.23882417114258,106.25273260697871L113.36697281097413,96.32041210145299L114.06900449005127,95.67779597229331L114.08014785003661,98.9114213030962L114.25844160980225,106.45741232030866L114.4311636895752,89.0636359432465L114.75989280914305,101.17220782003851L115.55664304809571,97.56898124844926L115.69036336791991,91.73797504282258L115.740508487854,94.07805468349433L116.03023584747314,101.97246009835547L116.04695088745117,96.7901724997211L116.88827456634522,95.87298139683911L116.96627808624268,81.88946579377397L117.5345894454956,77.12964854450917L117.6515947253418,90.00754275405887L118.39262816436768,99.68300330554658L118.79378912384034,109.28284322118597L118.91636608367921,118.25968661330037L119.0110846435547,100.03446420981683L119.26738192321777,106.4644629417476L119.45681904296876,109.7041987998746L119.81897824249268,109.17009203034496L120.26471264190673,104.92665696299545L120.29257104187012,100.05903889344765L120.6881603213501,105.03467296385658L120.88874080108643,106.65927533363616L121.16175312072752,113.43369800287462L121.50719728027343,95.76105195382434L121.51276896026611,91.35011137165664L121.70220608001709,98.79864681101878L121.78020959991454,99.46684400155058L122.01422015960692,101.9500855255834L122.94469071838378,104.45413104057725L123.11741279815674,106.5520412308304L123.30684991790771,98.42975169469979L123.70243919738769,105.10952231955736L123.9085913571167,112.38931497536072L124.092456796875,84.96841775381635L124.19274703674316,91.39152423239669L124.20389039672853,103.01405540468501L124.33203903656005,85.60493713587734L124.33761071655273,92.48891558474385L124.34318239654542,100.4198506521868L124.35989743652344,92.83282339980042L124.46575935638428,94.5741617581105L124.66076815612793,96.98189515150108L124.83349023590088,113.46572857695867L125.05078575561524,121.23489834357736L125.10650255554198,121.08660393616128L125.60238207489013,114.523747530376L125.6803855947876,108.80873041478439L125.8419643145752,115.28908904598741L125.8865377545166,107.09170137484857L126.0481164743042,112.98893397458413L126.5997127935791,109.39294442422315L127.88677087188721,103.29036869583102L128.0260628717041,104.57797169276901L128.04277791168212,105.81552800317833L128.0929230316162,98.54132967330614L128.24893007141114,91.99915342699163L128.44393887115478,103.21782326751321L128.51079903106688,117.12797605846649L128.86738655059816,109.91380801876731L129.6195633496094,110.52955701146195L129.92043406921385,105.6183777868745L130.66146750823975,97.34547677518951L130.66703918823242,106.10367782270906L131.44707438720704,109.88189864662226L132.1212476663208,106.86291625680708L132.16024942626953,109.39827066773641L132.856709425354,100.670077075668L133.12415006500245,98.81062072865382L133.48630926452637,96.57676998475971L133.5921711843872,96.58329583702593L133.74817822418214,95.55408714048197L133.870755184021,106.89900600799392L133.98776046386718,100.2430127148172L134.36663470336916,93.76590447365115L134.66193374298095,100.80683313650633L134.98509118255615,115.52198791066392L135.23024510223388,123.62548559985373L135.39182382202148,105.62811448242363L136.4225846206665,96.01916677475643L136.50615982055663,95.68352409994678L136.52287486053467,104.59080137166691L136.64545182037352,96.26635293652564L136.6788819003296,106.26439632809915L136.94632253997804,104.53495324322476L137.28619501953125,112.34551160737014L137.3641985394287,113.68844956627754L137.42548701934814,119.94110466700474L137.73192941894533,117.65798866426607L137.79321789886475,120.83200140273937L137.8266479788208,112.57186267602412L138.15537709838867,110.8287305595346L138.30581245819093,111.44759050403658L138.43396109802245,112.82792716643499L138.82397869750977,117.06934405807883L138.94655565734863,121.11744971148406L139.13042109710693,112.36647812199053L139.2251396569824,117.0668647097589L139.26414141693115,111.15393306424826L139.4870086166382,94.26542393290491L139.58729885650632,100.40124611318694L139.6207289364624,105.54701525206814L139.63744397644044,102.47630515494532L140.06089165588378,104.66761864315626L140.06646333587648,100.32878696815523L140.32833229553222,97.76034529069662L140.5010543753052,99.5200767292126L140.65148973510742,95.83076757526887L140.66820477508546,102.4821368123262L140.69606317504883,110.36543835939345L141.0080772546387,113.77816176697245L141.09165245452883,107.7491308465199L141.15294093444825,107.84343331483852L141.42595325408936,115.30717086254782L141.7435390136719,117.43263731868097L141.9942646133423,113.97024824558571L142.222703493042,120.39220827467342L142.29513533294678,123.87882016908088L142.30070701293945,113.21598123902673L142.42328397277834,114.89249160867503L142.4511423727417,109.69194208201745L142.51243085266114,108.84832197374561L143.13088733184816,112.50517052721864L143.24789261169434,110.91201578600561L143.63233853118896,118.61949377648867L143.649053571167,116.43145398444096L143.65462525115967,110.64842567570686L143.92206589080808,119.33980453636204L144.05578621063233,112.4524450613468L144.79124796966553,93.65771709976181L145.01411516937256,98.7473926845822L145.23698236907958,103.76662750392177L145.30941420898435,102.32892773043774L145.66600172851562,103.32393303608143L146.02816092803954,100.18771335397511L146.1563095678711,104.27459977256832L146.62433068725585,119.28561034936274L146.6410457272339,107.27127524049699L146.66890412719724,100.40924171746475L147.04220668670652,102.04852583834204L147.1424969265747,102.98545915834984L147.5603729260254,98.1126146509632L147.77766844573975,101.94463178482765L148.6579938845825,108.98083021981003L148.8920044442749,107.34382787131838L148.89757612426757,106.27644259035202L149.25973532379152,107.11588761336098L149.29316540374757,98.39578966898677L149.43802908355713,109.40355035935936L149.5550343634033,101.63671037255844L149.58846444335938,103.83684048653474L150.25149436248782,101.47060863025234L150.42978812225343,103.7995885990165L150.46878988220217,109.22976147493192L151.66112940063476,108.69603056994887L151.80042140045168,116.76439574456595L151.87285324035645,113.20686732400512L152.02328860015868,106.63196568979834L152.06229036010743,102.76778632530555L152.15143723999023,101.75966851988068L152.19601067993165,96.36927094014632L152.27401419982908,102.66670438663624L152.430021239624,100.68484739829154L152.83118219909667,99.44241734715155L153.06519275878907,100.87692701514068L153.2602015585327,105.05955117368617L153.46635371826173,109.67007712499884L153.9733765975952,106.98384381725108L154.65869323669432,112.65047351058885L154.69769499664307,112.90835080138137L155.04871083618167,113.30682775200934L155.11557099609374,112.36775013731096L155.61702219543457,102.23282162865283L155.6337372354126,94.81395373729656L156.45277419433594,99.67035332098986L156.47506091430662,100.65269135013702L156.71464315399172,86.32497663959157L156.77593163391114,93.18360354084999L156.80379003387452,103.6339861398766L156.8316484338379,105.41849576285053L157.02108555358888,111.09504560184098L157.07680235351563,111.54924412599968L157.2216660333252,118.57228470847792L157.4723916329956,108.08948813757425L157.60054027282715,113.88173426032445L157.88469595245363,108.5321907595855L158.01841627227782,107.03198958008757L158.12427819213866,111.29009955674854L158.20228171203615,110.57725983726739L158.38614715179443,116.62420527414514L159.0157469909668,117.77040699983154L159.2887593106079,112.59467772418363L159.74006539001465,113.25862407836578L159.80135386993408,95.0423574042932L159.9127874697876,104.0285554002238L160.31952010925292,101.81757747220884L160.5256722689819,108.09576260332989L160.63710586883545,110.67011297593028L161.23327562805179,107.04797200649516L162.01888250701904,109.90738814391871L162.2361780267334,100.58184529046747L162.397756746521,101.70534949858546L162.61505226623535,103.65022667876309L162.8824929058838,98.3806705055145L163.14993354553224,101.69894947767267L163.16107690551758,103.69530919735178L163.205650345459,109.97846274285511L163.37280074523926,109.89575038287761L163.50094938507078,102.17684554425392L163.89653866455077,104.41607784430819L164.68214554351806,97.36716307769558L165.0387330630493,106.77296162811224L165.2950303427124,107.84690624862995L165.46218074249268,106.35093205176871L165.58475770233156,100.99385641510145L165.62933114227295,95.83333824466233L166.3090761013794,99.96818514818055L166.47622650115966,108.59398653168546L166.59880346099854,100.57388601042278L166.78266890075685,87.90339799764958L167.19497322021485,104.18316035123274L167.4122687399292,104.29220639579687L167.8914332192993,87.42122730566776L168.29816585876463,89.04962277143122L168.43745785858155,90.80162326151662L168.50988969848632,104.31882912279578L168.56003481842043,110.43859943503705L169.00019753784179,101.60376474422057L169.32892665740968,105.04934154586664L169.9640981765747,102.37925589659389L170.04767337646487,100.4812257972513L170.48783609588622,104.47747413291023L170.97257225524905,106.08695844154606L171.46845177459718,105.3154353456006L171.67460393432617,106.0654172423297L171.86961273406985,108.01217315924227L172.05347817382813,109.55200670287525L172.28191705352782,100.15782351652337L172.88365849273683,92.73698255226853L172.97280537261963,93.48802472675159L173.08981065246581,99.70133732423805L173.13995577239993,101.39954995250814L173.22910265228273,97.30081858349166L173.58011849182128,94.31371708765671L173.58569017181395,92.14545644273305L173.66369369171144,94.42546849059022L174.34901033081053,102.40907209801551L174.41029881072996,107.52766920580086L174.96746680999755,106.6979947442945L175.34076936950683,105.23987590080013L176.45510536804198,95.28335354334672L176.92312648742674,98.56824177342452L176.9342698474121,101.7726948024243L177.1627087271118,100.34333140764613L177.16828040710448,99.70272019563009L177.32985912689207,105.05693532042106L177.34100248687744,108.9092604786623L177.89259880615234,101.36159200289339L178.7283508050537,100.72014222933586L179.08493832458495,95.67423592422912L179.118368404541,94.4910891151699L179.15179848449708,95.68102566743055L179.17408520446776,93.22610475048417L179.17965688446043,82.82026290396416L179.59753288391113,84.87526648849646L179.82040008361818,82.29057933716487L180.12684248321534,92.0791484556755L180.79544408233642,88.09571616517836L180.84001752227783,93.52287438937319L181.10745816192627,96.06921693843226L181.46404568145752,103.24198479730155L181.48076072143556,106.59586530215927L181.6534828012085,101.7945619369237L181.70919960113525,104.66319080011098L181.74820136108397,110.94316231254699L181.84849160095214,107.32197614373644L182.16607736053467,102.13025228814365L182.4112312802124,83.4503662887963L182.8903957595825,84.62313102622365L183.397418638916,95.36793736465786L183.40856199890135,94.9713387905002L183.586855758667,99.47086730536296L183.68714599853513,95.7652062252015L185.2639314364624,97.25527789982782L185.408795116272,104.55493052442883L185.65394903594972,110.55032470900862L185.96039143554688,102.71229998092656L186.3058355950928,95.14803682748553L186.37826743499755,95.21156032241329L186.89086199432373,104.73322810440686L187.05244071411133,86.03755198530679L187.26973623382568,102.1102872853882L187.6318954333496,95.64603128378128L188.8298066317749,98.5019349641364L189.2699693511963,86.66595913802286L189.41483303100586,90.90605778758803L189.5374099908447,95.65996431391153L189.64327191070558,88.11486924292522L189.75470551055906,87.5896278039829L189.78256391052244,93.96679668307166L189.8717107904053,94.48449463503194L189.93857095031737,84.07583525236146L190.02771783020017,95.04528781130657L190.17815319000246,101.8725767975113L190.5570274295044,104.07234051031924L190.9024715890503,90.01750212454674L190.9470450289917,95.78752326723682L192.06138102752686,97.88237424897181L192.10038278747558,99.37592663308084L192.15052790740967,106.59070565193424L192.42911190704345,110.68528993319892L192.4458269470215,105.03580833055378L192.56283222686767,101.86111660350556L192.62969238677977,72.24509838916218L192.73555430664064,77.50464992890011L192.84141622650145,81.1527497650741L193.59916470550536,88.84047940914614L194.0504707849121,74.62944674477028L194.05604246490478,84.03885461323873L194.24547958465575,80.83838885339752L194.35134150451663,76.77333652953308L194.60763878417967,82.0605820220269L195.00879974365233,91.28144515329268L195.0366581436157,100.23983622377392L195.1815218234253,97.31418286742591L195.4378191030884,87.1473439570752L195.5213943029785,85.70803597814314L195.97827206237793,94.86156074659995L196.217854302063,84.71506308572066L196.36271798187258,87.18347160407822L196.43514982177734,84.31345668685951L196.59115686157224,73.16668131818032L196.8307391012573,71.149949277557L197.42690886047362,82.87803048527921L197.56620086029054,90.13068645206276L197.60520262023925,97.55417989769221L197.62748934020996,98.4837380605163L198.1958006994629,101.28317673699605L198.41866789916992,86.8526487039574L198.94240581848143,92.92312264252773L199.02040933837893,95.631724732187L199.12069957824707,87.1284196695006L199.35471013793946,89.82588034908126L199.90630645721436,88.4344764740465L200.87020709594728,90.54319988010293L201.16550613555907,94.94634555244254L201.8285360546875,90.60313810508848L202.84258181335449,82.1730081943865L203.04873397308347,80.21361050802767L203.1657392529297,74.55164831124094L203.3718914126587,86.42443747965693L203.57247189239501,91.99480374196926L204.0627797317505,88.35377623738859L204.45836901123047,87.2404179437328L204.60323269104003,81.8395979236114L204.82609989074706,73.34646112571716L205.08239717041016,60.66940538079476L205.44455636993408,71.54653890123433L205.48355812988282,81.7200942856571L205.5281315698242,82.08354350169975L205.79557220947268,81.52140791429878L205.84571732940674,84.96382650693663L206.1744464489746,80.50485535482463L206.2468782888794,85.3736521249789L207.0547718878174,87.83528558223901L207.1216320477295,84.8370584617947L207.3054974874878,84.99910047329209L207.53950804718016,88.25244319425623L207.9016672467041,82.7829778041754L208.3139715661621,86.68002959755842L208.57584052581788,75.13117389581865L208.7764210055542,78.03442136788071L208.9379997253418,76.92955374344844L209.0995784451294,84.55837251190991L209.17201028503416,89.71196490257091L209.1887253250122,85.54108294591029L209.5564562045288,76.62847753868895L209.57317124450682,75.97453039861082L209.81275348419192,68.47743878255666L210.085765803833,79.52003420195557L210.39777988342286,83.58542161086778L211.13324164245606,66.35894983595891L211.1722434024048,81.10055912964802L211.17781508239747,83.21600654238195L211.2168168423462,76.64075434925785L211.73498308166506,73.94190774446906L211.80184324157713,78.9528399407664L211.87427508148193,85.13758176566175L211.91327684143067,83.39875543767344L212.5484483605957,92.76056284253589L212.5707350805664,91.84487225641395L212.72117044036867,86.74876368105915L212.732313800354,79.61223577964051L213.10561635986326,67.59856495765241L213.2337649996948,80.43393716400281L213.6237825991821,72.03667771604975L213.6794993991089,64.6955706948501L213.7742179589844,68.89662020412908L213.81321971893308,61.45907033619609L213.82993475891115,71.8540240259683L213.969226758728,53.69824574404632L214.72697523773195,70.05774136136813L215.2395697970581,82.96488870959746L215.27857155700684,76.65747750824248L215.78002275634768,86.28237314743188L215.83016787628173,90.48517640101288L215.89702803619386,97.71190713627358L216.0028899560547,97.19338096079892L216.09760851593015,96.46541605281496L216.1811837158203,92.09800574469688L216.39847923553467,86.8667198838295L216.4653393954468,89.78266076130546L216.60463139526368,91.68289634645095L216.77178179504395,92.07049819761862L216.81078355499267,92.61832584219619L217.13394099456787,91.25935421337704L217.39023827423097,89.1704309833628L217.49610019409178,87.39182568118105L217.53510195404053,87.63046419860135L217.79139923370363,95.22487068271371L218.08112659332275,91.10068035958737L218.0978416333008,97.24090954398737L218.29285043304444,90.86732333146004L219.00045379211426,88.9346743777279L219.0171688320923,85.13033301083003L219.30689619171144,84.25722243521146L219.31246787170411,91.8705922668637L219.4294731515503,91.78406935731095L219.73591555114746,96.83345433239802L220.22065171051025,88.479832353038L220.22622339050292,79.61362752187483L220.4379472302246,77.60163627619295L220.52152243011474,73.46774517050774L220.63295602996826,82.07176487714997L220.68310114990234,69.65454101150058L220.73324626983643,75.07063566483347L220.9003966696167,80.52139363980451L221.1734089892578,79.82095196881686L221.47985138885497,80.19591772444146L221.6581451486206,79.13865127186094L221.78072210845949,78.8926784784204L222.18745474792482,71.39260557075148L223.03435010681153,70.56328103288926L223.3073624264526,76.49835211280597L223.50794290618896,83.44370491906747L223.85338706573486,84.79915646742063L224.2824064251709,88.23861285948513L224.29912146514891,84.3323512402036L224.72256914459228,91.95598285724034L224.8395744244385,95.60510420645083L224.88414786437988,99.66094641073478L224.95657970428468,94.5086822382196L224.96772306427002,81.3077633815955L225.0011531442261,85.6968244509917L225.3577406637573,93.84765686622247L225.5471777835083,92.75595503129733L225.55832114349366,89.91653433288128L225.56389282348633,91.03341906028132L226.04305730285645,90.47636715103228L226.05977234283446,90.29782332556454L226.21020770263672,81.34353353946686L227.16296498138428,73.70695367945699L227.201966741333,82.75092487283447L227.5696976208496,80.11359503128455L227.597556020813,75.88320124407146L228.17701074005126,82.59319987414432L228.27172929992676,82.17438257152993L228.64503185943605,82.20741064731581L228.75646545928956,77.34144479709671L228.96261761901857,83.03223076696064L228.98490433898925,83.17018877492255L229.35263521850587,89.0188928315313L229.64236257812502,69.00092733166873L229.72593777801515,69.88081744653833L229.80951297790526,75.25750529177446L229.8986598577881,82.27428226224774L229.97109169769288,77.99413409355412L230.16610049743653,79.26742528843154L230.27196241729735,82.823523241955L230.3109641772461,82.43684911710427L231.60916561553955,83.99083428165126L231.9434664151001,77.26759851458317L232.1106168148804,75.03067436885148L232.2164787347412,69.56664957822281L232.71235825408934,61.70522706751106L232.9296537738037,66.14465331370037L232.95194049377443,79.0041487252652L233.0020856137085,65.52398723076851L233.03551569366456,72.80095364272127L233.17480769348143,69.41933547228255L233.49239345306395,75.81501266203676L233.73197569274902,79.44166463836231L234.30585873199465,67.74410774503498L234.64573121154785,72.11514848999853L234.952173611145,69.67266034190051L235.13603905090332,74.48675146007726L235.74335217010497,72.6289511035278L235.77678225006102,82.65211661943374L235.82692736999513,85.93775022099837L236.12779808959962,85.25678360162732L236.5456740890503,86.67997798539922L236.73511120880127,92.04967933461255L237.13627216827393,94.690593542709L237.62658000762937,79.86361256849962L238.16146128692625,85.05266369514537L238.26732320678713,85.80557597588847L238.50690544647216,77.19356960400945L238.89135136596678,79.41300454766348L240.0892625643921,87.80616336826003L240.65200224365236,92.6946392039408L240.95844464324952,91.00319260739542L241.04201984313966,98.85452910492076L241.42646576263425,92.98873569032963L241.61590288238526,94.50455624219502L242.02820720184326,79.18338027373589L242.11735408172606,80.83528030987932L242.1786425616455,79.19678462180629L242.3680796813965,70.50708964992684L242.81381408081054,75.7071740939856L243.15368656036378,78.67712649285751L243.15925824035642,70.55968248229463L243.24283344024659,80.41673975101551L243.48241567993165,80.17196552393142L243.59384927978513,85.19220511256412L243.83343151947022,86.69552840217584L243.8612899194336,80.51541754218795L244.26245087890626,75.99106007008275L245.04805775787352,79.34118857506996L245.17620639770507,90.13605665421538L245.18177807769774,90.22676177840073L245.1984931176758,86.24381762948218L245.93952655670168,83.90100843851506L246.47440783599853,77.07661886342724L246.58584143585207,74.18689072616175L246.80313695556643,77.52286641161403L246.86442543548586,84.98170838851439L248.2072003137207,71.0368291295369L248.44678255340574,80.9287730034666L248.67522143310546,46.69621345730357L249.06523903259276,68.05118361178349L249.2212460723877,76.400049828178L249.50540175201417,80.35982919585418L250.04585471130372,88.11331227658665L250.0904281512451,81.33752931276547L250.21857679107666,76.85735106617504L250.24643519104004,81.39348985905222L250.3411537509155,78.1250087044595L250.625309430542,90.94733035476692L250.83703327026367,83.52097469857878L251.90122414886474,90.88812690110265L251.9736559887695,91.09317911350213L252.37481694824217,82.51659755089146L252.95984334747317,86.19233350758584L253.44457950683594,93.47357399137987L253.51143966674806,100.32068121281556L253.68973342651367,99.61952342466259L253.8457404663086,89.54591211814716L254.33047662567137,69.30348834679734L254.38619342559812,68.15795287491515L254.4196235055542,74.8864229182179L254.4419102255249,84.53383173388974L254.61463230529785,83.86607664236978L254.62577566528321,88.58133137412418L254.70377918518065,83.21831794856622L254.73720926513673,86.73500960352081L255.14394190460206,85.54990977631924L256.2025611032105,85.62346760991713L256.52014686279296,39.597349047015996L256.5591486227417,45.6264472001601L257.0104547021484,67.22115330361083L257.09960158203126,81.7921022759045L257.155318381958,76.16194674671233L257.2500369418335,81.20476391466494L257.6567695812988,52.522152763713976L257.8016332611084,52.835488443960855L257.8072049411011,74.56838087327777L258.19722254058837,82.00023692131778L258.5760967800903,75.48393641804715L258.66524365997316,85.48758742711891L259.0329745394897,86.96406300601447L259.3004151791382,94.56527209773711L259.389562059021,84.94942948341897L259.5511407788086,91.11470334745428L259.6904327786255,96.900962206138L259.7962946984863,89.4227048422278L259.82972477844237,76.01983464416652L260.5986166174317,90.05050557467754L260.64319005737303,89.83518550493848L260.9997775769043,57.65060182131704L261.15021293670657,69.22098871886658L261.90238973571775,81.08166228854098L261.9413914956665,81.65321264494926L262.04168173553467,88.9482838998967L262.61556477478024,81.00273871899641L262.7492850946045,87.92750890554116L262.78271517456056,87.84792508501629L262.80500189453124,66.62445438335573L262.88300541442874,79.50166319405638L263.2284495739746,88.11199607289855L263.60732381347657,85.41865916119649L263.75775917327877,78.20962967275618L263.96391133300784,83.14222097393643L264.12549005279544,85.09495557962485L264.1979218927002,88.97849796867793L264.3762156524658,71.09800006144081L264.476505892334,79.86836461058725L264.53222269226075,73.69300393660504L264.6492279721069,78.48944613358805L264.78851997192385,83.77680252148681L265.2565410913086,72.34630270722681L265.64655869079587,73.77115993829037L265.9697161303711,83.71269723214733L266.19258333007815,87.25211738830143L266.34301868988035,91.79414942094273L266.4990257296753,98.43759724445368L266.5268841296387,108.2456197525492L266.8444698892212,108.59455484585293L267.0561937289429,107.01595138667764L267.2400591687012,108.27690477434021L267.3347777285767,97.3877119472224L267.55207324829104,95.13647891862261L268.9004198065185,76.42592597742315L268.98956668640136,52.946570503933756L269.7918886053467,66.07432195302135L270.0816159649658,60.684853308286065L270.32676988464357,71.4546762788618L270.52177868438724,78.2719242574881L270.68892908416746,84.97484266548753L270.8226494039917,94.39560880007015L270.95636972381595,92.45353740340471" fill="none"></path></g></g></g></g><g opacity="0.2"><g><g><g><path style="fill: none;" stroke="rgb(0, 119, 187)" stroke-width="2px" d="M29.27917836151123,-32.875817493887496L29.379468601379394,24.285956777996716L29.574477401123048,34.50430886767498L29.585620761108398,21.649430217772476L29.630194201049804,37.43687392395424L30.204077240295412,-41.36897872969877L30.499376279907224,-6.230443545279996L30.844820439453123,49.11796475847248L31.084402679138183,32.19250857307463L31.123404439086915,25.53228848933611L31.390845078735353,-15.878270631078948L31.463276918640137,2.8440524388431356L31.596997238464358,-20.3397539826355L31.836579478149417,-25.9311979520333L31.88115291809082,39.270731156063704L32.15416523773193,16.14649886581074L32.232168757629395,33.217891422521234L32.326887317504884,53.52933371055026L32.36031739746094,20.858486714126826L32.51632443725586,33.855521699822276L33.26850123626709,15.567246994213832L33.50808347595215,-30.22772903930587L33.79781083557129,-39.42372616513239L34.00953467529297,12.394061462623114L34.43298235473633,26.259414964744224L34.884288434143066,40.91130514338727L35.19073083374023,26.162754056455753L35.20744587371826,-33.72765621260109L35.28544939361572,41.65430391079886L35.30773611358642,-5.490887310216692L35.575176753234864,8.214306472654329L35.614178513183596,37.93456574344583L35.85933243286133,22.753904524699294L36.0264828326416,14.253568935758835L36.34406859222412,50.03957984713578L36.50564731201172,31.35747751229661L36.59479419189453,70.77192716168943L36.68394107177734,3.863832735644536L37.28011083099365,25.339111316975533L37.4305461907959,17.719186500944517L37.51969307067871,41.865523038407616L37.53640811065674,23.26264716231725L37.78156203033447,23.954316518833053L38.132577869873046,38.24263863829816L38.25515482971191,33.57755408785869L38.316443309631346,53.57168553708688L38.53931050933838,17.464979112247363L38.63402906921387,48.25896132957746L38.706460909118654,18.156127749584414L39.2023404284668,7.205711995247839L39.53664122802734,33.160969101927975L40.04366410736084,30.14219609272584L40.11052426727295,-3.1319137152025576L40.28881802703857,17.616672323369244L40.32224810699463,19.967208339098363L40.43368170684814,6.258977027684779L40.461540106811526,64.94943816410013L40.71226570648193,40.05908070676347L41.16914346588135,-18.651505261615L41.431012425537105,37.82351755710809L41.5257309854126,31.01023496366659L41.536874345397955,38.76717642433755L41.564732745361326,-36.24693417108162L41.704024745178224,45.12971871090281L41.70959642517089,36.53538366725405L41.77645658508301,1.9638538107842862L41.80431498504639,64.69447862547813L41.96589370483398,21.959065270160977L42.049468904724115,14.493620477152774L42.08289898468018,99.11526992265368L42.81836074371338,79.52761765010979L43.124803143310544,46.36331208825885L44.38957450164795,60.886304984271035L44.78516378112793,73.21464011500129L44.80187882110595,50.75528907240286L45.125036260681156,75.99505874161424L45.470480420227055,29.89196159850343L45.85492633972168,45.53999720900225L45.93292985961914,7.672392094761818L45.9440732196045,6.59378981665958L45.94964489959717,65.32294810241267L46.272802339172365,40.98736871527268L47.24784633789063,55.612769716434826L48.01673817687988,38.075487781926256L48.02788153686523,3.8362346191719325L48.306465536499026,53.53901523009553L48.702054815979004,39.739870207255024L48.99178217559814,51.77362292704113L49.108787455444336,57.30509740435538L49.14778921539306,51.21738877173358L49.74395897460938,46.8613124820786L49.8999660144043,53.10494757988637L50.05597305419922,27.046019141900445L50.345700413818356,59.34998090511853L50.69114457336426,79.01232745096671L51.237169212646485,47.9122298571784L51.40989129241944,33.52640789297021L51.43774969238281,62.88172016305495L51.91134249176026,82.09207281881888L51.922485851745606,79.68692878995749L52.37379193115235,59.16374665514097L52.886386490478515,29.36269876806449L52.981105050354,89.04245402195619L53.09811033020019,39.4480842511596L53.844715449218754,60.82765657602978L53.867002169189455,111.84464078606095L53.91157560913086,123.95491752848775L54.535603768310544,68.77511375548116L54.61360728820801,84.89143501629502L54.82533112792969,55.29570959427558L54.8921912878418,58.576413993326L55.12620184753418,50.89255643368442L55.55522120697021,98.85762964455601L55.995383926391604,74.47105834969163L56.00652728637695,17.528024704664546L56.30739800598144,80.19518928018775L56.46340504577637,83.35203483680888L57.048431445007324,57.00804639878615L57.549882644348145,86.3759330727424L57.639029524230956,49.98285038549761L57.71703304412842,73.68751098697348L58.05690552368164,58.55810203554071L58.59735848297119,34.680986956428086L58.77565224273682,91.24641241034708L59.499970641784664,80.52798669308191L59.745124561462404,74.73596941039598L60.21871736083984,53.55087605583323L60.31343592071533,88.23554661830342L60.33015096069336,69.40860720819563L60.53073144042969,70.80959251561747L60.569733200378415,63.18125904914477L60.77031368011475,63.95665812101058L60.887318959960936,34.46386634479373L61.232763119506835,81.69518837515005L61.344196719360355,58.505663685653175L61.962653198547365,99.3968343541296L62.01836999847412,84.44627315469462L62.40281591796875,84.98129282494286L62.47524775787353,78.39751238805216L62.50867783782959,85.83451530665921L62.581109677734375,75.24831851047401L62.898695437316896,15.551326487471584L63.02684407714844,51.042571771897045L63.05470247711182,49.994161563213325L63.383431596679685,67.646638151594L64.185753515625,69.49571195525965L64.48662423522948,39.913665054629575L64.64820295501708,62.995555161293694L64.94907367462157,67.50438538632353L65.16636919433593,92.37653695830019L65.18308423431397,39.506694087609844L65.24994439422608,-21.897263618004047L65.42266647399902,48.79780925008413L66.0021211932373,86.56039302033317L66.04669463317872,42.43276944005052L66.13026983306885,69.07355334552697L66.6707227923584,72.54973958145128L66.81558647216796,113.28630004711013L66.93816343200683,88.31097375563704L67.450757991333,100.39456122941705L67.49533143127441,85.87143333213632L67.72377031097412,60.33765982884606L68.23636487030029,92.2549972448058L68.59295238983154,85.399979973484L68.86039302947998,86.38086061904481L68.98854166931152,98.41663835785933L69.09440358917236,44.3825541900614L69.36741590881347,93.80828326905804L69.42313270874024,76.32552256115189L69.43984774871826,70.46546463911208L69.5234229486084,57.6083006105918L69.70728838836669,32.1270233148756L70.68790406707764,51.48526021739849L70.72133414703369,43.62783924112841L71.09463670654296,-19.252723768196063L71.25064374633789,54.902672686760695L71.30636054626466,83.18828311952035L71.5013693460083,70.99467925481227L71.87467190551757,60.144665872492794L72.0529656652832,88.29327412503413L72.38169478485108,27.768517002386545L72.57670358459472,80.63608413740688L72.79957078430175,47.78053611969884L73.43474230346679,-10.033660711341383L73.62975110321044,24.50195880769158L73.6631811831665,35.96084719710896L74.04762710266112,92.50492798617395L74.29278102233886,47.13868223128139L74.45435974212647,87.41119512216322L74.48221814208983,52.92832734881979L74.53236326202392,72.0633589396754L75.03381446136476,82.34144909069116L75.05052950134277,85.18095970114206L75.2065365411377,100.38484113808079L75.26225334106445,96.83575421713448L75.58541078063965,82.87063477754809L75.7804195803833,72.66722925688887L75.96985670013427,43.777343503110075L76.30415749969482,76.34886813766488L76.99504581878662,51.03696921925183L77.32377493835449,68.94552392819399L77.46863861816406,72.2666033494914L77.48535365814209,63.70592219350495L77.60235893798827,72.46551807576579L77.64136069793702,102.04012544220343L77.9645181375122,98.62879285140026L77.99794821746826,91.00628854684498L78.3099622970581,81.25961642509125L79.26271957580566,21.092540342017628L79.30172133575441,89.90125977042227L79.45215669555664,116.32289804523597L79.7641707751465,88.54255396742889L79.9424645349121,66.87525054599396L80.29905205444337,30.66256812533541L80.4272006942749,95.0447406018971L80.61106613403321,55.976829565948236L81.05122885345459,88.86685594335158L81.09023061340332,71.58044975909105L81.1626624533081,61.650508593794186L81.49696325286865,67.70779372625138L81.66411365264892,120.30635154777181L81.79226229248047,101.73852778676809L81.89255253234863,89.36062790458107L82.70044613128663,50.70360287244017L83.05703365081787,84.47382305642847L83.89835732971191,86.42311119462998L84.04322100952149,63.03737662570383L84.51124212890626,97.95036326215103L85.11298356811524,119.8833154297935L85.15198532806396,57.3235057916182L85.78158516723633,146.3886496696401L85.79830020721435,61.38135463607797L85.91530548706055,26.369469927463314L86.24403460662842,91.86036925091149L86.29975140655517,106.31355202665688L86.48361684631348,90.06297682573467L86.95720964569091,92.23368633026895L87.12993172546386,125.79072022530661L87.21907860534668,60.60421019066864L87.31379716522216,84.86148402057036L87.5366643649292,87.23841760577672L87.79296164459228,128.5492156102003L87.79853332458497,109.09051365649992L87.92111028442383,86.62448005110781L88.1161190841675,104.3188889977978L88.26098276397705,116.35908802815763L88.31112788391114,106.81565549474603L88.60085524353028,94.55274294305438L88.6175702835083,98.91535232981286L88.80700740325928,116.1693726740408L88.82929412322997,89.57577171192581L88.95744276306152,76.58656679980679L88.99087284301758,84.03547393741643L89.00201620300292,91.79064591717449L89.22488340270996,109.80859504691456L89.25831348266603,77.44388271284484L89.35860372253417,92.87510628603742L89.71519124206543,89.40602208113413L89.82105316192626,74.53890613009042L89.87119828186034,76.14712802769854L90.25007252136231,114.50124878498339L90.26121588134765,104.9319635086427L90.5955166809082,126.80215455082671L91.48141379974365,89.52228228073307L91.77671283935547,93.33917314671L91.888146439209,83.36192367973086L92.06086851898192,86.89784315551876L92.111013638916,122.70974297087885L92.20573219879151,104.14365252973396L92.300450758667,74.66727305059482L92.7573285180664,130.9722810574629L92.88547715789795,109.19872681619796L92.9634806777954,75.21776000904084L93.37578499725342,85.57314802925457L94.01095651641845,95.7437193128106L94.54583779571534,112.30650423317168L94.5736961956787,95.59878098659057L94.77427667541504,78.47211987482669L94.94699875518799,86.8192000951091L95.48745171447754,71.16017152417045L95.6323153942871,104.93872803649228L95.65460211425781,97.68733257625875L95.74374899414062,86.19146348220389L95.97775955383301,88.50194269296192L96.33434707336426,50.10781334544474L96.35106211334228,118.12847251158226L96.4402089932251,73.34562991729483L96.97509027252198,78.3569252209546L97.2703893121338,77.90134415430575L97.79969891143799,43.45573190961082L98.45715715057374,53.61355521623575L98.61316419036865,72.33660150723941L98.94189330993652,105.67054580598284L99.20376226959229,100.46380723724022L99.60492322906495,112.31466698844564L99.71078514892578,69.2772606168352L99.95036738861084,109.42936684058375L100.38495842803955,112.74551871557875L100.47967698791504,94.22897615073205L100.63011234771729,118.50013100392599L100.74711762756348,111.31970763916364L100.81397778747558,131.7739668049068L100.89755298736573,105.06497832996462L100.91983970733644,71.80844761579219L101.01455826721191,87.7892324244464L101.21513874694824,79.70498038815343L101.43800594665527,121.01329533353031L101.62187138641357,103.19083286213797L102.2347561856079,98.0558474676346L102.53005522521973,93.6252504777349L102.55234194519043,106.7748465398501L102.66377554504395,115.34821781508114L102.93678786468506,93.03961979619855L103.09836658447266,84.57561401292217L103.33237714416505,118.47751346996844L103.6165328237915,86.01468414249936L103.74468146362305,118.72394382130179L104.07341058319092,87.85170908294609L104.09012562316896,113.62350910860188L104.45228482269287,83.10388804077529L104.61386354248047,127.0981592965646L104.80330066223144,101.64721389300936L104.9983094619751,30.40422391205169L105.21560498168945,111.77191849557238L105.72819954101563,99.00515710224806L105.8507765008545,96.03693242517363L106.3076542602539,107.49409954841688L107.09326113922118,128.499554429266L107.4609920187378,92.55514363660414L107.49999377868653,75.23219550182893L107.5501388986206,127.4280999861866L107.6448574584961,135.018228093657L107.7117176184082,77.97119766783743L107.74514769836425,73.89077468268502L108.07387681793213,79.98067226444702L108.35246081756593,94.42913481726671L108.61432977722168,106.97943131940396L108.81491025695802,103.70884237254774L108.94863057678222,118.16085353014098L108.96534561676025,111.57232394148134L109.38322161621093,103.72175427959066L109.416651696167,118.60138195534546L109.58380209594726,91.31145409294939L109.63394721588135,90.15413643232934L109.6896640158081,88.78615893507025L110.20225857513428,88.44380536095164L110.20783025512695,115.32348365409152L110.25240369506837,76.91901706658182L110.27469041503907,94.49189112125129L110.36940897491455,89.93102272866571L110.7259964944458,111.58434869733088L110.83185841430665,112.3531519929328L111.02129553405761,80.42945505292913L111.58403521331788,115.77984579950846L111.93505105285644,113.62676842494281L112.19134833251954,86.41335735297659L112.43650225219727,110.1286734117209L112.5423641720581,107.17735764353353L112.91566673156738,83.1506370514878L113.23882417114258,121.28516860251321L113.36697281097413,81.42193134316442L114.06900449005127,94.71387177855378L114.08014785003661,103.76185929930051L114.25844160980225,117.77639884612736L114.4311636895752,62.97297137765328L114.75989280914305,119.33506563522647L115.55664304809571,92.1641413910654L115.69036336791991,82.99146573438253L115.740508487854,97.58817414450195L116.03023584747314,113.8140682206472L116.04695088745117,89.01674110176953L116.88827456634522,94.49719474251611L116.96627808624268,60.91419238917629L117.5345894454956,69.98992267061196L117.6515947253418,109.3243840683834L118.39262816436768,114.19619413277815L118.79378912384034,123.68260309464509L118.91636608367921,131.724951701472L119.0110846435547,72.69663060459153L119.26738192321777,116.10946103964375L119.45681904296876,114.56380258706511L119.81897824249268,108.3689318760505L120.26471264190673,98.5615043619712L120.29257104187012,92.75761178912593L120.6881603213501,112.49812406946997L120.88874080108643,109.09617888830554L121.16175312072752,123.59533200673232L121.50719728027343,69.25208288024889L121.51276896026611,84.73370049840511L121.70220608001709,109.97144997006197L121.78020959991454,100.46913978734831L122.01422015960692,105.67494781163265L122.94469071838378,108.21019931306803L123.11741279815674,109.69890651621014L123.30684991790771,86.24631739050385L123.70243919738769,115.12917825684369L123.9085913571167,123.30900395906579L124.092456796875,43.837071921499785L124.19274703674316,101.02618395026722L124.20389039672853,120.44785216311746L124.33203903656005,59.49125973266581L124.33761071655273,102.8148832580436L124.34318239654542,112.3162532533512L124.35989743652344,81.45228252122087L124.46575935638428,97.18616929557564L124.66076815612793,100.59349524158694L124.83349023590088,138.19147871514505L125.05078575561524,132.88865299350536L125.10650255554198,120.86416232503719L125.60238207489013,104.67946292169803L125.6803855947876,100.236204741397L125.8419643145752,125.00962699279192L125.8865377545166,94.7956198681403L126.0481164743042,121.83478287418748L126.5997127935791,103.99896009868165L127.88677087188721,94.13650510324281L128.0260628717041,106.509376188176L128.04277791168212,107.67186246879234L128.0929230316162,87.63003217849784L128.24893007141114,82.18588905751982L128.44393887115478,120.04582802829563L128.51079903106688,137.99320524489633L128.86738655059816,99.09255595921857L129.6195633496094,111.45318050050389L129.92043406921385,98.25160894999334L130.66146750823975,84.93612525766201L130.66703918823242,119.2409793939884L131.44707438720704,115.54922988249206L132.1212476663208,102.33444267208432L132.16024942626953,113.20130228413043L132.856709425354,87.57778668756539L133.12415006500245,96.02143620813257L133.48630926452637,93.22599386891854L133.5921711843872,96.59308461542527L133.74817822418214,94.01027409566599L133.870755184021,123.91638430926182L133.98776046386718,90.25902277505214L134.36663470336916,84.05024211190205L134.66193374298095,111.36822613078908L134.98509118255615,137.59472007190033L135.23024510223388,135.78073213363848L135.39182382202148,78.63205780627844L136.4225846206665,81.60574521325564L136.50615982055663,95.18006008773229L136.52287486053467,117.95171727924713L136.64545182037352,83.7796802838137L136.6788819003296,121.26146141545942L136.94632253997804,101.94078861591318L137.28619501953125,124.06134915358817L137.3641985394287,115.70285650463865L137.42548701934814,129.32008731809552L137.73192941894533,114.23331466015807L137.79321789886475,125.59302051044929L137.8266479788208,100.18165458595129L138.15537709838867,108.21403238480033L138.30581245819093,112.37588042078951L138.43396109802245,114.8984321600326L138.82397869750977,123.43146939554458L138.94655565734863,127.1896081915919L139.13042109710693,99.24002073775021L139.2251396569824,124.1174445914115L139.26414141693115,102.28453559598228L139.4870086166382,68.93266023588984L139.58729885650632,109.60497938361002L139.6207289364624,113.26566896038995L139.63744397644044,97.8702400092611L140.06089165588378,107.95458887547264L140.06646333587648,93.82053945565366L140.32833229553222,93.90768277450869L140.5010543753052,102.15967388698657L140.65148973510742,90.29680384435325L140.66820477508546,112.45919066791224L140.69606317504883,122.1903906799943L141.0080772546387,118.89724687834092L141.09165245452883,98.70558446584111L141.15294093444825,107.98488701731645L141.42595325408936,126.5027771841118L141.7435390136719,120.62083700288068L141.9942646133423,108.77666463594284L142.222703493042,130.02514831830499L142.29513533294678,129.10873801069206L142.30070701293945,97.2217228439455L142.42328397277834,117.40725716314749L142.4511423727417,101.89111779203111L142.51243085266114,107.58289181133787L143.13088733184816,117.99044335742813L143.24789261169434,108.5222836741861L143.63233853118896,130.18071076221327L143.649053571167,113.1493942963694L143.65462525115967,101.97388321260571L143.92206589080808,132.37687282734484L144.05578621063233,102.12140584882388L144.79124796966553,65.46562515738432L145.01411516937256,106.38190606181277L145.23698236907958,111.29547973293111L145.30941420898435,100.17237807021172L145.66600172851562,104.81644099454695L146.02816092803954,95.48338383081563L146.1563095678711,110.40492940045812L146.62433068725585,141.8021262145544L146.6410457272339,89.24977257719837L146.66890412719724,90.11619143291642L147.04220668670652,104.50745201965799L147.1424969265747,104.39085913836153L147.5603729260254,90.80334788988323L147.77766844573975,107.69265748562435L148.6579938845825,119.53512787228358L148.8920044442749,104.8883243485809L148.89757612426757,104.67536466890249L149.25973532379152,108.37505514787443L149.29316540374757,85.31564275242546L149.43802908355713,125.91519139491828L149.5550343634033,89.98645039235706L149.58846444335938,107.13703565749918L150.25149436248782,97.92126084582875L150.42978812225343,107.2930585521627L150.46878988220217,117.37502078880507L151.66112940063476,107.89543421247427L151.80042140045168,128.86694350649154L151.87285324035645,107.87057469316386L152.02328860015868,96.76961323848818L152.06229036010743,96.97151727856637L152.15143723999023,100.24749181174333L152.19601067993165,88.28367457054479L152.27401419982908,112.11285455637113L152.430021239624,97.7120619157745L152.83118219909667,97.57877227044158L153.06519275878907,103.02869151712437L153.2602015585327,111.33348741150445L153.46635371826173,116.58586605196786L153.9733765975952,102.95449385562941L154.65869323669432,121.15041805059553L154.69769499664307,113.29516673757016L155.04871083618167,113.9045431779513L155.11557099609374,110.95913371526339L155.61702219543457,87.0304288656656L155.6337372354126,83.68565190026217L156.45277419433594,106.95495269652983L156.47506091430662,102.12619839385773L156.71464315399172,64.83340457377341L156.77593163391114,103.47154389273763L156.80379003387452,119.3095600384165L156.8316484338379,108.09526019731142L157.02108555358888,119.60987036032665L157.07680235351563,112.2305419122377L157.2216660333252,129.1068455821953L157.4723916329956,92.36529328121875L157.60054027282715,122.57010344444976L157.88469595245363,100.50787550847707L158.01841627227782,104.78168781084068L158.12427819213866,117.67726452173996L158.20228171203615,109.50800025804566L158.38614715179443,125.69462342946179L159.0157469909668,119.48970958836114L159.2887593106079,104.83108381071176L159.74006539001465,114.25454360963903L159.80135386993408,67.71795739318434L159.9127874697876,117.50785239411968L160.31952010925292,98.50111058018643L160.5256722689819,117.51304030001145L160.63710586883545,114.53163853483086L161.23327562805179,101.61476055234249L162.01888250701904,114.19651235005404L162.2361780267334,86.5935310102906L162.397756746521,103.39060581076245L162.61505226623535,106.56754244902956L162.8824929058838,90.4763362456416L163.14993354553224,106.67636793590998L163.16107690551758,106.6898487768704L163.205650345459,119.40319306111013L163.37280074523926,109.77168184291135L163.50094938507078,90.59848828631837L163.89653866455077,107.7749262943896L164.68214554351806,86.79379092777668L165.0387330630493,120.88165945373724L165.2950303427124,109.4578231794065L165.46218074249268,104.10697075647684L165.58475770233156,92.95824296010056L165.62933114227295,88.09256098900362L166.3090761013794,106.1704555034579L166.47622650115966,121.5326886069428L166.59880346099854,88.54373522852877L166.78266890075685,68.89766597848974L167.19497322021485,128.60280388160754L167.4122687399292,104.45577546264305L167.8914332192993,62.1147586704741L168.29816585876463,91.49221597007642L168.43745785858155,93.42962399664472L168.50988969848632,124.59463791471453L168.56003481842043,119.61825490339896L169.00019753784179,88.35151270799585L169.32892665740968,110.21770674833576L169.9640981765747,98.37412742268478L170.04767337646487,97.63418064823742L170.48783609588622,110.47184663639862L170.97257225524905,108.50118490449984L171.46845177459718,104.15815070168244L171.67460393432617,107.19039008742337L171.86961273406985,110.93230703461111L172.05347817382813,111.86175701832471L172.28191705352782,86.0665487369955L172.88365849273683,81.60572110588627L172.97280537261963,94.61458798847617L173.08981065246581,109.02130622046778L173.13995577239993,103.94686889491328L173.22910265228273,91.15272152996693L173.58011849182128,89.83306484390431L173.58569017181395,88.89306547534758L173.66369369171144,97.84548656237597L174.34901033081053,114.38447750915347L174.41029881072996,115.20556486747887L174.96746680999755,105.453483052035L175.34076936950683,103.05269763555854L176.45510536804198,80.34857000716661L176.92312648742674,103.49557411854119L176.9342698474121,106.57937434592401L177.1627087271118,98.19928631547886L177.16828040710448,98.74180337760602L177.32985912689207,113.08825800760754L177.34100248687744,114.68774821602418L177.89259880615234,90.04008928923999L178.7283508050537,99.75796756899958L179.08493832458495,88.105376466569L179.118368404541,92.71636890158108L179.15179848449708,97.46593049582151L179.17408520446776,89.5437233750646L179.17965688446043,67.21150013418415L179.59753288391113,87.95777186529492L179.82040008361818,78.41354861016747L180.12684248321534,106.76200213344147L180.79544408233642,82.12056772943264L180.84001752227783,101.66361172566543L181.10745816192627,99.88873076202088L181.46404568145752,114.00113658560548L181.48076072143556,111.62668605944584L181.6534828012085,94.5926068890704L181.70919960113525,108.96613409489193L181.74820136108397,120.363119581201L181.84849160095214,101.89019689052058L182.16607736053467,94.34266650475449L182.4112312802124,55.43053728977529L182.8903957595825,86.38227813236469L183.397418638916,111.48514687230917L183.40856199890135,94.3764409292637L183.586855758667,106.22016007765711L183.68714599853513,90.2067146049593L185.2639314364624,99.4903854117673L185.408795116272,115.50440946133037L185.65394903594972,119.54341598587834L185.96039143554688,90.95526288880345L186.3058355950928,83.80164209732399L186.37826743499755,95.30684556480497L186.89086199432373,119.01572977739721L187.05244071411133,57.99403780665672L187.26973623382568,126.21939023551033L187.6318954333496,85.94964728137091L188.8298066317749,102.78579048466906L189.2699693511963,68.91199539885253L189.41483303100586,97.2662057619358L189.5374099908447,102.79082410339677L189.64327191070558,76.79722663644581L189.75470551055906,86.80176564556943L189.78256391052244,103.5325500017048L189.8717107904053,95.26104156297235L189.93857095031737,68.46284617835575L190.02771783020017,111.49946664972421L190.17815319000246,112.1135102768184L190.5570274295044,107.37198607953113L190.9024715890503,68.93524454588798L190.9470450289917,104.44255498127198L192.06138102752686,101.0246507215743L192.10038278747558,101.61625520924439L192.15052790740967,117.41287418021435L192.42911190704345,116.82716635509595L192.4458269470215,96.56158592658606L192.56283222686767,97.09907901293326L192.62969238677977,27.821071067647125L192.73555430664064,85.39397723850699L192.84141622650145,86.62489951933512L193.59916470550536,100.37207387525417L194.0504707849121,53.31289774820645L194.05604246490478,98.15296641594139L194.24547958465575,76.03769021363571L194.35134150451663,70.67575804373645L194.60763878417967,89.99145026076764L195.00879974365233,105.11273985019133L195.0366581436157,113.67742282949581L195.1815218234253,92.9257028329039L195.4378191030884,71.89708559154911L195.5213943029785,83.54907400974507L195.97827206237793,108.59184789928516L196.217854302063,69.49531659440171L196.36271798187258,90.88608438161457L196.43514982177734,80.00843431103145L196.59115686157224,56.44651826516153L196.8307391012573,68.12485121662205L197.42690886047362,100.47015229686251L197.56620086029054,101.0096704022381L197.60520262023925,108.68942006613639L197.62748934020996,99.87807530475246L198.1958006994629,105.48233475171567L198.41866789916992,65.20685665439943L198.94240581848143,102.02883355038323L199.02040933837893,99.69462786667589L199.12069957824707,74.37346207547101L199.35471013793946,93.8720713684523L199.90630645721436,86.34737066149437L200.87020709594728,93.70628498918761L201.16550613555907,101.55106406095189L201.8285360546875,84.0883269340574L202.84258181335449,69.5278133283335L203.04873397308347,77.27451397848944L203.1657392529297,66.05870501606083L203.3718914126587,104.23362123228097L203.57247189239501,100.35035313543776L204.0627797317505,82.89223498051757L204.45836901123047,85.57038050324908L204.60323269104003,73.73836789342933L204.82609989074706,60.60675592887576L205.08239717041016,41.653821763411145L205.44455636993408,87.8622391818937L205.48355812988282,96.98042736229128L205.5281315698242,82.6287173257637L205.79557220947268,80.67820453319739L205.84571732940674,90.12745439589337L206.1744464489746,73.8163986266566L206.2468782888794,92.67684728021034L207.0547718878174,91.52773576812913L207.1216320477295,80.33971778112821L207.3054974874878,85.24216349053819L207.53950804718016,93.13245727570245L207.9016672467041,74.5787797190542L208.3139715661621,92.52560728763291L208.57584052581788,57.80789034320895L208.7764210055542,82.3892925759738L208.9379997253418,75.27225230680003L209.0995784451294,96.00160066460211L209.17201028503416,97.4423534885624L209.1887253250122,79.28476001091937L209.5564562045288,63.2595694278569L209.57317124450682,74.99360968849365L209.81275348419192,57.23180135847544L210.085765803833,96.0839273310539L210.39777988342286,89.68350272423612L211.13324164245606,40.519242173595586L211.1722434024048,103.21297307018169L211.17781508239747,86.38917766148285L211.2168168423462,66.7778760595717L211.73498308166506,69.89363783728592L211.80184324157713,86.46923823521237L211.87427508148193,94.41469450300475L211.91327684143067,80.79051594569097L212.5484483605957,106.80327394982959L212.5707350805664,90.47133637723103L212.72117044036867,79.104600818027L212.732313800354,68.90744392751252L213.10561635986326,49.57805872467031L213.2337649996948,99.68699547352841L213.6237825991821,59.44078854412015L213.6794993991089,53.68391016305067L213.7742179589844,75.19819446804749L213.81321971893308,50.30274553429662L213.82993475891115,87.44645456062659L213.969226758728,26.464578321163344L214.72697523773195,94.5969847873508L215.2395697970581,102.32560973194144L215.27857155700684,67.19636070620999L215.78002275634768,100.719716606216L215.83016787628173,96.78938128138437L215.89702803619386,108.55200323916466L216.0028899560547,96.41559169758695L216.09760851593015,95.37346869083898L216.1811837158203,85.54689028251977L216.39847923553467,79.0197910925285L216.4653393954468,94.15657207751939L216.60463139526368,94.5332497241692L216.77178179504395,92.65190097437014L216.81078355499267,93.44006730906256L217.13394099456787,89.22089677014831L217.39023827423097,86.03704613834142L217.49610019409178,84.72391772790844L217.53510195404053,87.98842197473174L217.79139923370363,106.6164804088823L218.08112659332275,84.91439487489785L218.0978416333008,106.45125332058736L218.29285043304444,81.30694401266904L219.00045379211426,86.03570094712971L219.0171688320923,79.4238209604832L219.30689619171144,82.94755657178362L219.31246787170411,103.29064701434206L219.4294731515503,91.65428499298184L219.73591555114746,104.4075317950286L220.22065171051025,75.94939938399793L220.22622339050292,66.3143202751301L220.4379472302246,74.58364940767008L220.52152243011474,67.26690851197999L220.63295602996826,94.97779443711332L220.68310114990234,51.02870521302647L220.73324626983643,83.19477764483283L220.9003966696167,88.69753060226108L221.1734089892578,78.7702894623354L221.47985138885497,80.75836635787833L221.6581451486206,77.55275159299016L221.78072210845949,78.52371928825961L222.18745474792482,60.14249620924811L223.03435010681153,69.3192942260959L223.3073624264526,85.40095873268106L223.50794290618896,93.86173412845976L223.85338706573486,86.83233378995037L224.2824064251709,93.39779744758187L224.29912146514891,78.47295881128132L224.72256914459228,103.39143028279544L224.8395744244385,101.07878623026657L224.88414786437988,105.74470971716065L224.95657970428468,86.78028597944687L224.96772306427002,61.506385096659386L225.0011531442261,92.28041605508598L225.3577406637573,106.07390548906861L225.5471777835083,91.1184022789096L225.55832114349366,85.65740328525719L225.56389282348633,92.70874615138135L226.04305730285645,89.64078928715874L226.05977234283446,90.03000758736295L226.21020770263672,67.91209886032036L227.16296498138428,62.25208388944216L227.201966741333,96.31688166290071L227.5696976208496,76.15760026895963L227.597556020813,69.5376105632518L228.17701074005126,92.65819781925364L228.27172929992676,81.54615661760835L228.64503185943605,82.25695276099468L228.75646545928956,70.04249602176805L228.96261761901857,91.5684097217565L228.98490433898925,83.3771257868654L229.35263521850587,97.79194891644445L229.64236257812502,38.97397908187489L229.72593777801515,71.20065261884274L229.80951297790526,83.32253705962869L229.8986598577881,92.79944771795769L229.97109169769288,71.57391184051366L230.16610049743653,81.17736208074763L230.27196241729735,88.15767017224022L230.3109641772461,81.85683792982817L231.60916561553955,86.32181202847174L231.9434664151001,67.18274486398101L232.1106168148804,71.67528815025395L232.2164787347412,61.37061239227975L232.71235825408934,49.91309330144347L232.9296537738037,72.80379268298435L232.95194049377443,98.29339184261245L233.0020856137085,45.3037449890235L233.03551569366456,83.71640326065044L233.17480769348143,64.34690821662448L233.49239345306395,85.40852844666811L233.73197569274902,84.88164260285059L234.30585873199465,50.19777240504399L234.64573121154785,78.67170960744384L234.952173611145,66.00892811975345L235.13603905090332,81.7078881373424L235.74335217010497,69.8422505687036L235.77678225006102,97.68686489329268L235.82692736999513,90.86620062334534L236.12779808959962,84.23533367257072L236.5456740890503,88.81476956105706L236.73511120880127,100.10423135843254L237.13627216827393,98.65196485485369L237.62658000762937,57.62314110718556L238.16146128692625,92.83624038511397L238.26732320678713,86.93494439700318L238.50690544647216,64.2755600461909L238.89135136596678,82.74215696314452L240.0892625643921,100.3959015991549L240.65200224365236,100.0273529574619L240.95844464324952,88.4660227125774L241.04201984313966,110.63153385120876L241.42646576263425,84.19004556844295L241.61590288238526,96.77828706999311L242.02820720184326,56.20161632104721L242.11735408172606,83.31313036409443L242.1786425616455,76.73904108969676L242.3680796813965,57.47254719210768L242.81381408081054,83.50730076007372L243.15368656036378,83.13205509116538L243.15925824035642,58.38351646645029L243.24283344024659,95.20232565409681L243.48241567993165,79.80480418330528L243.59384927978513,92.72256449551317L243.83343151947022,88.95051333659345L243.8612899194336,71.24525125220606L244.26245087890626,69.204523861925L245.04805775787352,84.36638133255079L245.17620639770507,106.3283587729335L245.18177807769774,90.36281946467874L245.1984931176758,80.26940140610434L245.93952655670168,80.38679465206438L246.47440783599853,66.8400345007955L246.58584143585207,69.85229852026352L246.80313695556643,82.52682993979245L246.86442543548586,96.16997135386494L248.2072003137207,50.11951024107063L248.44678255340574,95.76668881436119L248.67522143310546,-4.652625861941004L249.06523903259276,100.08363884350337L249.2212460723877,88.92334915276976L249.50540175201417,86.29949824736846L250.04585471130372,99.74353689768537L250.0904281512451,71.17385486703371L250.21857679107666,70.13708369628935L250.24643519104004,88.19769804836805L250.3411537509155,73.22228697257042L250.625309430542,110.18081283022805L250.83703327026367,72.38144121429659L251.90122414886474,101.93885520488845L251.9736559887695,91.40075743210137L252.37481694824217,69.65172520697541L252.95984334747317,91.7059374426274L253.44457950683594,104.39543471707091L253.51143966674806,110.59134204496911L253.68973342651367,98.56778674243309L253.8457404663086,74.43549515837402L254.33047662567137,38.939852689772636L254.38619342559812,66.4396496670919L254.4196235055542,84.97912798317203L254.4419102255249,99.00494495739747L254.61463230529785,82.86444400508987L254.62577566528321,95.65421347175578L254.70377918518065,75.17379781022927L254.73720926513673,92.01004708595272L255.14394190460206,83.77226003551684L256.2025611032105,85.733804360314L256.52014686279296,-29.441828797335745L256.5591486227417,54.6700944298763L257.0104547021484,99.61321245878688L257.09960158203126,103.64852573434499L257.155318381958,67.71671345292404L257.2500369418335,88.76898966659384L257.6567695812988,9.498236037287484L257.8016332611084,53.30549196433121L257.8072049411011,107.16771951725316L258.19722254058837,93.14802099337778L258.5760967800903,65.70948566314118L258.66524365997316,100.49306394072657L259.0329745394897,89.17877637435782L259.3004151791382,105.96708573532108L259.389562059021,70.52566556194178L259.5511407788086,100.36261414350727L259.6904327786255,105.5803504941636L259.7962946984863,78.20531879636252L259.82972477844237,55.91552934707457L260.5986166174317,111.09651197044411L260.64319005737303,89.51220540032989L260.9997775769043,9.373726295884808L261.15021293670657,86.5765690651909L261.90238973571775,98.87267264305262L261.9413914956665,82.51053817956168L262.04168173553467,99.89089078231784L262.61556477478024,69.08442094764601L262.7492850946045,98.31466418535828L262.78271517456056,87.72854935422899L262.80500189453124,34.78924833086489L262.88300541442874,98.81747641010737L263.2284495739746,101.02749539116179L263.60732381347657,81.37865379364341L263.75775917327877,67.39608544009572L263.96391133300784,90.5411079257068L264.12549005279544,88.02405748815754L264.1979218927002,94.80381155225753L264.3762156524658,44.277253200585136L264.476505892334,93.0239114343069L264.53222269226075,64.42996292563171L264.6492279721069,85.68410942906254L264.78851997192385,91.707837103335L265.2565410913086,55.200552985836794L265.64655869079587,75.9084457848857L265.9697161303711,98.62500317293285L266.19258333007815,92.56124762253256L266.34301868988035,98.60719746990465L266.4990257296753,108.40276897972011L266.5268841296387,122.95765351469248L266.8444698892212,109.11795748580847L267.0561937289429,104.64804619791474L267.2400591687012,110.16833485583408L267.3347777285767,81.05392270654565L267.55207324829104,91.75962937572298L268.9004198065185,48.36009656562388L268.98956668640136,17.72753729369967L269.7918886053467,85.76594912665274L270.0816159649658,52.600650341183126L270.32676988464357,87.6094107347254L270.52177868438724,88.4977962254276L270.68892908416746,95.02922027748666L270.8226494039917,108.52675800194407L270.95636972381595,89.54043030840654" fill="none"></path></g></g></g></g></g></g><g transform="translate(51, 177)" clip-path="url(#clip_1)"><clipPath id="clip_1"><rect width="278" height="22"></rect></clipPath><g><g><line x1="0" y1="0" x2="0" y2="5" style="visibility: inherit;" fill="rgb(0, 0, 0)" stroke="rgb(204, 204, 204)" stroke-width="1px"></line><line x1="27.858399963378908" y1="0" x2="27.858399963378908" y2="5" style="visibility: inherit;" fill="rgb(0, 0, 0)" stroke="rgb(204, 204, 204)" stroke-width="1px"></line><line x1="55.716799926757815" y1="0" x2="55.716799926757815" y2="5" style="visibility: inherit;" fill="rgb(0, 0, 0)" stroke="rgb(204, 204, 204)" stroke-width="1px"></line><line x1="83.57519989013672" y1="0" x2="83.57519989013672" y2="5" style="visibility: inherit;" fill="rgb(0, 0, 0)" stroke="rgb(204, 204, 204)" stroke-width="1px"></line><line x1="111.43359985351563" y1="0" x2="111.43359985351563" y2="5" style="visibility: inherit;" fill="rgb(0, 0, 0)" stroke="rgb(204, 204, 204)" stroke-width="1px"></line><line x1="139.29199981689453" y1="0" x2="139.29199981689453" y2="5" style="visibility: inherit;" fill="rgb(0, 0, 0)" stroke="rgb(204, 204, 204)" stroke-width="1px"></line><line x1="167.15039978027343" y1="0" x2="167.15039978027343" y2="5" style="visibility: inherit;" fill="rgb(0, 0, 0)" stroke="rgb(204, 204, 204)" stroke-width="1px"></line><line x1="195.00879974365233" y1="0" x2="195.00879974365233" y2="5" style="visibility: inherit;" fill="rgb(0, 0, 0)" stroke="rgb(204, 204, 204)" stroke-width="1px"></line><line x1="222.86719970703126" y1="0" x2="222.86719970703126" y2="5" style="visibility: inherit;" fill="rgb(0, 0, 0)" stroke="rgb(204, 204, 204)" stroke-width="1px"></line><line x1="250.72559967041016" y1="0" x2="250.72559967041016" y2="5" style="visibility: inherit;" fill="rgb(0, 0, 0)" stroke="rgb(204, 204, 204)" stroke-width="1px"></line><line x1="278.58399963378906" y1="0" x2="278.58399963378906" y2="5" style="visibility: inherit;" fill="rgb(0, 0, 0)" stroke="rgb(204, 204, 204)" stroke-width="1px"></line></g><g transform="translate(0, 8)"><text style="text-anchor: middle; visibility: hidden; font-family: &quot;Helvetica Neue&quot;, sans-serif; font-size: 12px; font-weight: 200;" x="0" y="0" dx="0em" dy="0.95em" fill="rgb(50, 49, 63)" stroke="none" stroke-width="1px">-5k</text><text style="text-anchor: middle; visibility: inherit; font-family: &quot;Helvetica Neue&quot;, sans-serif; font-size: 12px; font-weight: 200;" x="27.858399963378908" y="0" dx="0em" dy="0.95em" fill="rgb(50, 49, 63)" stroke="none" stroke-width="1px">0</text><text style="text-anchor: middle; visibility: hidden; font-family: &quot;Helvetica Neue&quot;, sans-serif; font-size: 12px; font-weight: 200;" x="55.716799926757815" y="0" dx="0em" dy="0.95em" fill="rgb(50, 49, 63)" stroke="none" stroke-width="1px">5k</text><text style="text-anchor: middle; visibility: inherit; font-family: &quot;Helvetica Neue&quot;, sans-serif; font-size: 12px; font-weight: 200;" x="83.57519989013672" y="0" dx="0em" dy="0.95em" fill="rgb(50, 49, 63)" stroke="none" stroke-width="1px">10k</text><text style="text-anchor: middle; visibility: hidden; font-family: &quot;Helvetica Neue&quot;, sans-serif; font-size: 12px; font-weight: 200;" x="111.43359985351563" y="0" dx="0em" dy="0.95em" fill="rgb(50, 49, 63)" stroke="none" stroke-width="1px">15k</text><text style="text-anchor: middle; visibility: inherit; font-family: &quot;Helvetica Neue&quot;, sans-serif; font-size: 12px; font-weight: 200;" x="139.29199981689453" y="0" dx="0em" dy="0.95em" fill="rgb(50, 49, 63)" stroke="none" stroke-width="1px">20k</text><text style="text-anchor: middle; visibility: hidden; font-family: &quot;Helvetica Neue&quot;, sans-serif; font-size: 12px; font-weight: 200;" x="167.15039978027343" y="0" dx="0em" dy="0.95em" fill="rgb(50, 49, 63)" stroke="none" stroke-width="1px">25k</text><text style="text-anchor: middle; visibility: inherit; font-family: &quot;Helvetica Neue&quot;, sans-serif; font-size: 12px; font-weight: 200;" x="195.00879974365233" y="0" dx="0em" dy="0.95em" fill="rgb(50, 49, 63)" stroke="none" stroke-width="1px">30k</text><text style="text-anchor: middle; visibility: hidden; font-family: &quot;Helvetica Neue&quot;, sans-serif; font-size: 12px; font-weight: 200;" x="222.86719970703126" y="0" dx="0em" dy="0.95em" fill="rgb(50, 49, 63)" stroke="none" stroke-width="1px">35k</text><text style="text-anchor: middle; visibility: inherit; font-family: &quot;Helvetica Neue&quot;, sans-serif; font-size: 12px; font-weight: 200;" x="250.72559967041016" y="0" dx="0em" dy="0.95em" fill="rgb(50, 49, 63)" stroke="none" stroke-width="1px">40k</text><text style="text-anchor: middle; visibility: hidden; font-family: &quot;Helvetica Neue&quot;, sans-serif; font-size: 12px; font-weight: 200;" x="278.58399963378906" y="0" dx="0em" dy="0.95em" fill="rgb(50, 49, 63)" stroke="none" stroke-width="1px">45k</text></g><line x1="0" y1="0" x2="278.58399963378906" y2="0" fill="rgb(0, 0, 0)" stroke="rgb(204, 204, 204)" stroke-width="1px"></line></g></g></g></g></svg>